<svg version="1.1" id="Layer_1" xmlns="http://www.w3.org/2000/svg" xmlns:xlink="http://www.w3.org/1999/xlink" x="0px" y="0px"
	 width="100%" viewBox="0 0 500 500" enable-background="new 0 0 500 500" xml:space="preserve">
<path fill="#FFFFFF" opacity="1.000000" stroke="none" 
	d="
M283.000000,501.000000 
	C188.666687,501.000000 94.833382,501.000000 1.000050,501.000000 
	C1.000034,334.333405 1.000034,167.666794 1.000017,1.000140 
	C167.666565,1.000093 334.333130,1.000093 500.999756,1.000047 
	C500.999847,167.666519 500.999847,334.333038 500.999939,500.999786 
	C428.500000,501.000000 356.000000,501.000000 283.000000,501.000000 
M276.610199,215.392242 
	C275.034332,214.859222 273.458466,214.326218 271.252563,213.547287 
	C268.535370,211.301315 265.818176,209.055328 262.870361,206.048233 
	C262.602386,205.592010 262.334412,205.135788 262.173950,204.717728 
	C262.173950,204.717728 262.196045,204.900330 261.602509,204.411346 
	C258.780853,201.807953 255.959167,199.204559 252.872833,196.113480 
	C252.249557,195.735397 251.626297,195.357300 250.695740,194.528610 
	C250.523895,194.469254 250.352051,194.409897 249.708633,193.847061 
	C248.495255,193.599899 247.281891,193.352737 245.991013,193.151321 
	C245.991013,193.151321 245.814194,193.093155 246.369781,192.669296 
	C246.322922,192.441116 246.276077,192.212936 246.026779,191.579788 
	C241.507416,189.998428 236.988068,188.417068 232.448288,186.218857 
	C230.150208,186.124420 227.852112,186.029984 224.925919,185.829987 
	C224.109451,186.077866 223.273651,186.276245 222.481232,186.585709 
	C221.405746,187.005737 219.666428,188.154388 219.413803,187.880783 
	C216.602402,184.835754 213.203064,186.070709 209.264633,186.257507 
	C207.787384,186.725204 206.310150,187.192886 204.101242,187.554642 
	C202.718933,188.011353 201.336624,188.468079 199.434662,188.888412 
	C199.281677,188.970535 199.128693,189.052673 198.244522,189.236252 
	C187.203812,193.108429 177.535751,199.462906 167.220428,205.942688 
	C166.379181,206.490631 165.537933,207.038574 164.466156,207.736664 
	C165.356369,208.568817 165.797440,209.045242 166.301071,209.442352 
	C175.157288,216.425461 184.021133,223.398911 192.980682,230.764877 
	C193.331406,230.934464 193.682129,231.104034 194.446594,231.868958 
	C197.543564,234.270157 200.640533,236.671371 202.364883,238.008331 
	C215.674530,230.067398 227.879684,222.785446 240.010803,215.443512 
	C240.010803,215.443512 240.071045,215.506363 240.748459,215.770630 
	C245.999054,215.580124 251.249649,215.389618 256.918335,215.721130 
	C257.949219,216.134491 258.980072,216.547852 260.431824,217.431396 
	C261.625885,218.276123 262.819916,219.120850 264.321625,220.491180 
	C265.296448,220.842911 266.271301,221.194641 266.998718,222.363190 
	C268.631592,224.637604 270.264465,226.912018 272.055756,229.849976 
	C277.098419,236.307526 282.216949,242.903290 291.650940,241.856979 
	C294.891968,241.497528 298.195648,240.120010 301.078369,238.506531 
	C304.837189,236.402710 308.205627,233.601501 312.798523,231.230347 
	C317.695801,227.401184 322.613068,223.596298 327.407257,219.642136 
	C327.575165,219.503601 326.518158,217.879913 325.646820,216.428665 
	C319.597168,211.919434 313.547546,207.410202 307.779541,203.110901 
	C302.848541,207.233902 298.160400,211.019775 293.664764,215.021881 
	C292.725525,215.858002 292.496918,217.492371 291.384613,218.570648 
	C289.909454,218.737946 288.434326,218.905243 286.897919,218.266342 
	C285.162903,217.998566 283.427887,217.730789 281.107391,217.070068 
	C279.757629,216.664505 278.407837,216.258942 276.610199,215.392242 
M116.916481,271.493774 
	C117.667747,269.412140 118.419022,267.330505 119.170288,265.248871 
	C119.523293,265.333801 119.876289,265.418732 120.229294,265.503662 
	C120.229294,272.220734 120.229294,278.937836 120.229294,285.730927 
	C122.581978,285.730927 124.482788,285.730927 126.546173,285.730927 
	C126.546173,274.373230 126.546173,263.315063 126.546173,252.296234 
	C118.242859,251.078064 118.256668,251.082825 115.756325,258.341522 
	C113.736038,264.206573 111.677261,270.058350 109.172813,277.243652 
	C106.677788,270.058685 104.624901,264.161072 102.581879,258.260040 
	C100.035805,250.906052 99.452126,250.598267 91.618256,252.483414 
	C91.618256,263.579956 91.618256,274.656952 91.618256,285.801270 
	C93.725609,285.801270 95.501648,285.801270 97.779533,285.801270 
	C97.779533,278.905701 97.779533,272.226166 97.779533,265.546661 
	C98.107857,265.489197 98.436188,265.431763 98.764511,265.374298 
	C101.194725,272.166901 103.624947,278.959503 106.093857,285.860291 
	C108.011223,285.860291 109.805534,285.860291 111.812019,285.860291 
	C113.442055,281.275085 115.048370,276.756592 116.916481,271.493774 
M134.615494,257.239899 
	C130.869904,262.923615 130.635681,269.166656 132.246109,275.450165 
	C133.774002,281.411652 137.695465,285.138336 143.986237,286.176758 
	C156.252197,288.201477 163.792282,280.849091 163.188950,267.383484 
	C162.893875,260.797638 160.717590,255.327713 154.203842,252.580170 
	C147.497070,249.751236 140.444077,251.310196 134.615494,257.239899 
M319.034607,251.806427 
	C315.253784,251.806427 311.472961,251.806427 307.544250,251.806427 
	C307.544250,263.419464 307.544250,274.481750 307.544250,285.739349 
	C309.844482,285.739349 311.895599,285.739349 314.406525,285.739349 
	C314.406525,281.065002 314.406525,276.667419 314.406525,272.350189 
	C321.724518,271.503754 322.140228,271.476044 324.663208,280.760529 
	C326.035858,285.811890 328.411865,287.054932 333.660583,285.313263 
	C331.373962,279.755951 329.160309,274.376007 326.888672,268.855164 
	C333.357819,264.385376 333.887787,256.159637 327.176544,253.078674 
	C325.018066,252.087784 322.350769,252.205292 319.034607,251.806427 
M271.241302,264.157104 
	C271.179474,266.807526 270.883545,269.477295 271.100220,272.104736 
	C271.721008,279.631561 276.257507,284.813507 283.058899,286.089081 
	C295.438995,288.410828 303.614105,280.669983 302.828461,267.369720 
	C302.273285,257.971741 297.462799,252.436478 288.908905,251.353134 
	C280.379822,250.272919 274.289062,254.451843 271.241302,264.157104 
M211.294006,256.818970 
	C211.294006,266.428192 211.294006,276.037445 211.294006,285.773773 
	C219.315125,285.773773 226.729843,285.773773 234.598724,285.773773 
	C234.509674,283.801056 234.433136,282.105652 234.336075,279.955597 
	C228.675446,279.955597 223.586395,279.955597 218.573181,279.955597 
	C218.573181,276.738678 218.573181,274.018219 218.573181,270.922119 
	C223.204361,270.922119 227.485992,270.922119 231.825119,270.922119 
	C231.825119,268.948303 231.825119,267.372040 231.825119,265.100037 
	C227.186066,265.100037 222.815735,265.100037 218.544281,265.100037 
	C218.544281,262.312805 218.544281,260.227631 218.544281,257.631622 
	C223.790451,257.631622 228.726578,257.631622 233.752625,257.631622 
	C233.752625,255.408966 233.752625,253.709122 233.752625,251.797165 
	C227.231964,251.797165 221.069504,251.993195 214.927902,251.720337 
	C211.492203,251.567673 210.954025,253.166748 211.294006,256.818970 
M369.607849,279.472076 
	C368.037872,278.292908 366.467926,277.113739 364.583344,275.698273 
	C363.303741,277.263489 362.096313,278.740417 360.942719,280.151489 
	C365.596893,285.673187 371.685364,287.607910 378.744873,286.064545 
	C383.783722,284.962952 386.694641,281.685486 386.996094,276.774384 
	C387.310699,271.648071 385.086975,268.190674 380.079193,266.517273 
	C377.566437,265.677612 374.755219,265.600769 372.384949,264.512451 
	C370.885590,263.824005 369.950684,261.906128 368.762604,260.539703 
	C370.206512,259.413330 371.684479,257.310059 373.087494,257.358948 
	C376.245789,257.468933 379.366974,258.645172 382.906067,259.482819 
	C383.597656,258.418610 384.546814,256.958008 385.458618,255.554947 
	C379.993256,250.827087 372.050507,249.891281 366.552002,253.059952 
	C361.804657,255.795746 359.937439,262.430389 363.635101,266.349274 
	C365.941620,268.793793 369.768188,269.888519 373.029663,271.322754 
	C376.024048,272.639557 381.094543,272.233154 379.733795,277.354156 
	C378.523102,281.910278 374.256317,280.531677 370.828278,279.958496 
	C370.664429,279.931091 370.504730,279.879028 369.607849,279.472076 
M349.540283,280.213440 
	C347.771851,280.213440 346.003448,280.213440 344.114899,280.213440 
	C344.114899,276.863678 344.114899,274.137146 344.114899,270.853882 
	C348.780792,270.853882 353.173248,270.853882 357.792908,270.853882 
	C357.698456,268.829895 357.630768,267.379974 357.533203,265.289429 
	C352.936432,265.289429 348.555450,265.289429 344.174561,265.289429 
	C344.174561,262.397858 344.174561,260.165161 344.174561,257.476562 
	C349.436005,257.476562 354.364716,257.476562 359.499146,257.476562 
	C359.499146,255.453308 359.499146,253.894684 359.499146,252.246704 
	C351.861145,252.246704 344.507507,252.246704 337.294312,252.246704 
	C337.294312,263.684845 337.294312,274.734619 337.294312,285.697479 
	C345.052887,285.697479 352.458466,285.697479 360.087982,285.697479 
	C359.959137,283.768311 359.852814,282.175995 359.721741,280.213562 
	C356.434814,280.213562 353.470062,280.213562 349.540283,280.213440 
M167.757462,261.872253 
	C169.860794,268.163666 172.011078,274.439972 174.047150,280.753052 
	C175.030502,283.802094 175.627716,286.303741 180.135437,286.247375 
	C184.424469,286.193787 184.931030,283.775696 185.860840,280.957092 
	C187.159592,277.020081 188.520828,273.103729 189.822784,269.167755 
	C191.666626,263.593506 193.480820,258.009491 195.343552,252.320099 
	C188.672241,251.562103 188.698929,251.570740 186.874619,257.207275 
	C184.822189,263.548645 182.715240,269.872375 180.632004,276.203766 
	C177.494247,269.818024 174.957291,263.533630 173.359558,257.018921 
	C172.081665,251.808395 169.412888,250.983734 164.611679,252.434982 
	C165.607162,255.490875 166.526443,258.312836 167.757462,261.872253 
M266.973907,271.902802 
	C267.304871,270.276184 267.635803,268.649567 268.114441,266.296936 
	C263.065063,266.296936 258.815369,266.296936 254.595108,266.296936 
	C254.595108,263.123932 254.595108,260.573547 254.595108,257.503265 
	C259.563293,257.503265 264.151489,257.503265 268.863434,257.503265 
	C268.863434,255.350449 268.863434,253.741272 268.863434,252.053741 
	C261.690460,252.053741 254.748062,252.053741 247.558990,252.053741 
	C247.558990,263.376221 247.558990,274.455811 247.558990,285.723358 
	C249.848755,285.723358 251.899948,285.723358 254.303055,285.723358 
	C254.303055,281.134521 254.303055,276.835297 254.303055,272.057495 
	C258.461609,272.057495 262.269958,272.057495 266.973907,271.902802 
M411.862976,251.806641 
	C403.783569,251.806641 395.704193,251.806641 387.277405,251.806641 
	C387.388916,254.062592 387.466583,255.634048 387.554657,257.416168 
	C390.871704,257.573822 393.790710,257.712555 397.287903,257.878754 
	C397.287903,267.399078 397.287903,276.604645 397.287903,285.753418 
	C399.825806,285.753418 401.748016,285.753418 404.213684,285.753418 
	C404.213684,276.285492 404.213684,267.077240 404.213684,257.487305 
	C407.712555,257.487305 410.660980,257.487305 414.559418,257.487305 
	C413.812103,255.192932 413.268524,253.524017 411.862976,251.806641 
M198.092926,254.766861 
	C198.092926,265.047791 198.092926,275.328735 198.092926,285.663574 
	C200.674149,285.663574 202.714493,285.663574 204.663513,285.663574 
	C204.663513,274.228394 204.663513,263.147400 204.663513,250.806152 
	C201.996506,252.033737 200.051895,252.928818 198.092926,254.766861 
M121.349983,309.098145 
	C123.610298,309.633911 125.868134,310.439880 128.133179,310.460663 
	C128.549454,310.464508 129.029984,307.290894 129.420120,305.570160 
	C130.383087,301.322876 127.971596,300.305389 124.406754,300.319916 
	C120.183372,300.337158 121.575806,303.508972 121.324577,305.738129 
	C121.231987,306.559662 121.314232,307.400940 121.349983,309.098145 
M222.842392,303.086670 
	C222.703049,300.660492 222.016434,299.207001 219.869705,301.810333 
	C218.816650,303.087341 218.177032,304.705292 217.170959,306.486481 
	C215.493149,303.958862 214.279160,302.129974 213.065170,300.301117 
	C212.701050,300.416901 212.336929,300.532715 211.972809,300.648499 
	C211.972809,304.008270 211.972809,307.368073 211.972809,310.727844 
	C212.295761,310.764893 212.618698,310.801941 212.941650,310.838989 
	C213.314026,309.652069 213.686401,308.465118 214.098785,307.150696 
	C215.234146,308.142365 216.254959,309.033997 217.354477,309.994354 
	C218.526672,308.351044 219.483124,307.010193 220.666809,305.350769 
	C220.928375,307.550354 221.115829,309.126740 221.303284,310.703156 
	C221.816864,310.669525 222.330444,310.635895 222.844025,310.602264 
	C222.844025,308.368164 222.844025,306.134064 222.842392,303.086670 
M376.290344,304.699402 
	C375.503113,304.725555 374.321350,305.091064 373.999481,304.716949 
	C372.838379,303.367065 371.966888,301.768066 370.985992,300.263184 
	C370.622467,300.429596 370.258972,300.596008 369.895447,300.762451 
	C369.895447,304.098846 369.895447,307.435242 369.895447,310.771667 
	C370.224579,310.816071 370.553680,310.860443 370.882812,310.904846 
	C371.296875,309.686981 371.710907,308.469086 372.438049,306.330322 
	C373.408661,308.217712 374.002899,309.373230 374.756470,310.838562 
	C376.482239,308.398438 377.471008,307.000366 378.728851,305.221863 
	C378.928955,307.476379 379.073578,309.105927 379.218231,310.735474 
	C379.567413,310.687653 379.916626,310.639832 380.265808,310.592041 
	C380.265808,307.237183 380.265808,303.882355 380.265808,300.527496 
	C379.867859,300.402954 379.469910,300.278442 379.071960,300.153931 
	C378.270081,301.463470 377.468170,302.773010 376.290344,304.699402 
M359.237885,300.331360 
	C355.552307,301.295959 354.711884,305.412506 357.236877,311.029175 
	C359.231384,304.782990 361.280670,309.904266 363.597015,311.190186 
	C363.597015,309.471466 363.133606,307.906342 363.678009,306.871307 
	C365.913940,302.620361 363.859863,301.064301 359.237885,300.331360 
M342.272797,301.738068 
	C341.883789,303.985077 340.425079,307.378967 341.337799,308.230286 
	C343.021271,309.800476 346.396454,310.867432 348.487915,310.233704 
	C349.906952,309.803741 351.501709,305.774963 350.970825,303.951752 
	C349.840149,300.068878 346.446991,299.573090 342.272797,301.738068 
M174.141434,306.856171 
	C174.894135,306.547974 175.646820,306.239777 176.986069,305.691406 
	C174.800446,305.060028 173.372650,304.647583 170.543671,303.830353 
	C173.601547,302.809753 175.260788,302.255981 176.920044,301.702179 
	C176.858963,301.239136 176.797882,300.776093 176.736786,300.313049 
	C174.485214,300.553040 170.642563,300.189911 170.280182,301.145996 
	C169.189819,304.022614 169.455170,307.413116 169.197479,310.533600 
	C172.211151,310.533600 174.448410,310.533600 176.685669,310.533600 
	C176.691284,310.254913 176.696915,309.976227 176.702530,309.697540 
	C175.331924,309.410522 173.961334,309.123474 172.590729,308.836426 
	C172.849396,308.194946 173.108047,307.553436 174.141434,306.856171 
M305.099060,307.527344 
	C304.779602,308.529602 304.460144,309.531860 304.140686,310.534119 
	C307.580597,307.223755 310.772522,308.968384 315.033386,311.460449 
	C312.905212,306.778107 311.415283,303.499969 309.300140,298.846313 
	C307.497681,302.533783 306.444122,304.689178 305.099060,307.527344 
M227.712646,303.430908 
	C226.230774,307.351105 227.687408,309.998962 231.568863,310.902100 
	C234.874039,311.671143 237.581909,310.282654 238.177170,306.697662 
	C238.773834,303.104187 236.592285,300.891510 233.269455,300.639191 
	C231.607239,300.512939 229.821396,302.014740 227.712646,303.430908 
M269.692566,309.352142 
	C268.128845,309.055084 266.565094,308.758057 265.001373,308.461029 
	C265.054199,308.140472 265.107056,307.819946 265.159882,307.499390 
	C266.654785,307.010437 268.149658,306.521484 270.544098,305.738312 
	C267.978546,305.057220 266.526398,304.671722 265.074249,304.286224 
	C265.058014,303.983521 265.041809,303.680847 265.025574,303.378143 
	C266.691498,302.824921 268.357422,302.271729 270.023346,301.718506 
	C269.989868,301.431000 269.956421,301.143524 269.922943,300.856018 
	C267.676849,300.856018 265.430786,300.856018 263.261475,300.856018 
	C263.261475,304.397034 263.261475,307.610321 263.261475,311.660492 
	C265.958740,310.956848 268.098480,310.398621 269.692566,309.352142 
M157.714081,301.108704 
	C156.715820,302.531128 154.838974,304.016235 154.934906,305.360596 
	C155.063614,307.164307 156.328537,309.511658 157.831757,310.407990 
	C159.196350,311.221710 161.672882,310.774261 163.374008,310.129883 
	C164.077530,309.863434 164.037598,307.634338 164.209091,306.865692 
	C162.053421,307.641235 160.399109,308.515198 158.677475,308.678253 
	C158.189529,308.724457 156.853912,305.868042 157.009720,305.745544 
	C158.962311,304.210632 161.117737,302.933716 163.859512,301.183167 
	C161.908936,301.072021 160.154297,300.972015 157.714081,301.108704 
M184.014587,300.525299 
	C176.364441,305.861694 186.170044,305.597656 186.574432,308.704071 
	C184.775970,308.704071 183.020798,308.704071 180.141449,308.704071 
	C183.425522,311.382385 186.341415,312.316650 188.255417,309.715179 
	C191.334671,305.529907 185.500671,305.730743 184.135315,303.187042 
	C185.782028,302.909637 187.182434,302.673706 188.582840,302.437775 
	C188.607346,302.070374 188.631851,301.703003 188.656357,301.335602 
	C187.339676,301.008362 186.022995,300.681122 184.014587,300.525299 
M283.018951,310.705658 
	C285.015533,309.091492 287.012115,307.477356 288.980042,305.886322 
	C287.099182,304.158142 288.466370,297.692322 282.227570,301.045410 
	C282.227570,304.118652 282.227570,307.331757 283.018951,310.705658 
M149.792923,301.943176 
	C146.979019,299.260529 144.029465,300.075012 142.240677,302.698303 
	C141.230957,304.179047 141.109741,307.874420 142.146729,308.772278 
	C143.780792,310.187073 146.718292,310.340881 149.126221,310.430176 
	C149.667938,310.450256 150.301132,308.004059 150.789307,306.921387 
	C148.376984,307.751160 146.725677,308.747620 145.121857,308.676300 
	C144.402313,308.644348 143.777786,306.475067 143.110153,305.275665 
	C144.800598,304.451782 146.476959,303.596558 148.191620,302.826538 
	C148.607559,302.639709 149.149597,302.733643 149.792923,301.943176 
M244.792557,303.682312 
	C244.193771,302.611847 243.594986,301.541382 242.996216,300.470917 
	C242.534775,300.738983 242.073334,301.007080 241.611893,301.275146 
	C242.996155,304.647461 244.380402,308.019745 245.764664,311.392059 
	C246.353836,311.294891 246.943008,311.197693 247.532181,311.100525 
	C248.883667,307.720093 250.235138,304.339661 251.586624,300.959259 
	C251.100586,300.746582 250.614548,300.533905 250.128510,300.321259 
	C248.978424,302.744080 247.828323,305.166931 246.519211,307.924805 
	C245.917038,306.473785 245.476181,305.411469 244.792557,303.682312 
M329.989868,305.472595 
	C330.083466,307.248505 330.177032,309.024414 330.255035,310.504303 
	C332.553802,308.606689 334.375427,307.102936 336.222534,305.578186 
	C334.908722,305.145233 333.415192,304.653076 331.921692,304.160919 
	C331.929901,303.771851 331.938110,303.382782 331.946350,302.993713 
	C333.541473,302.518402 335.136597,302.043121 336.731720,301.567810 
	C333.519440,300.642090 329.498627,298.285950 329.989868,305.472595 
M294.288574,302.259583 
	C294.288574,305.047852 294.288574,307.836151 294.288574,311.072449 
	C296.816071,310.948090 298.700500,310.855408 300.584900,310.762695 
	C301.018341,310.205841 301.451752,309.648956 301.885193,309.092102 
	C295.684204,310.193176 296.820831,306.668304 296.701660,303.926605 
	C296.586395,301.274689 296.579254,301.274994 294.288574,302.259583 
M322.870941,309.064270 
	C323.408630,306.385681 323.946320,303.707092 324.507385,300.911987 
	C323.114563,300.911987 320.593781,300.911987 319.259613,300.911987 
	C319.875885,303.594513 320.273682,305.848511 320.956635,308.012482 
	C321.192139,308.758698 322.138092,309.280731 322.870941,309.064270 
M197.284073,310.615051 
	C198.133133,307.327454 198.982193,304.039825 199.813065,300.822723 
	C198.052704,300.822723 195.578629,300.822723 194.178085,300.822723 
	C194.985916,304.341339 195.714462,307.514648 197.284073,310.615051 
z"/>
<path fill="#6826EC" opacity="1.000000" stroke="none" 
	d="
M116.785583,271.865936 
	C115.048370,276.756592 113.442055,281.275085 111.812019,285.860291 
	C109.805534,285.860291 108.011223,285.860291 106.093857,285.860291 
	C103.624947,278.959503 101.194725,272.166901 98.764511,265.374298 
	C98.436188,265.431763 98.107857,265.489197 97.779533,265.546661 
	C97.779533,272.226166 97.779533,278.905701 97.779533,285.801270 
	C95.501648,285.801270 93.725609,285.801270 91.618256,285.801270 
	C91.618256,274.656952 91.618256,263.579956 91.618256,252.483414 
	C99.452126,250.598267 100.035805,250.906052 102.581879,258.260040 
	C104.624901,264.161072 106.677788,270.058685 109.172813,277.243652 
	C111.677261,270.058350 113.736038,264.206573 115.756325,258.341522 
	C118.256668,251.082825 118.242859,251.078064 126.546173,252.296234 
	C126.546173,263.315063 126.546173,274.373230 126.546173,285.730927 
	C124.482788,285.730927 122.581978,285.730927 120.229294,285.730927 
	C120.229294,278.937836 120.229294,272.220734 120.229294,265.503662 
	C119.876289,265.418732 119.523293,265.333801 119.170288,265.248871 
	C118.419022,267.330505 117.667747,269.412140 116.785583,271.865936 
z"/>
<path fill="#6520EC" opacity="1.000000" stroke="none" 
	d="
M134.835770,256.942566 
	C140.444077,251.310196 147.497070,249.751236 154.203842,252.580170 
	C160.717590,255.327713 162.893875,260.797638 163.188950,267.383484 
	C163.792282,280.849091 156.252197,288.201477 143.986237,286.176758 
	C137.695465,285.138336 133.774002,281.411652 132.246109,275.450165 
	C130.635681,269.166656 130.869904,262.923615 134.835770,256.942566 
M138.406097,269.391205 
	C138.573334,270.707764 138.710144,272.029083 138.913315,273.340057 
	C139.630905,277.970612 142.489243,280.312897 147.028305,280.578278 
	C151.626862,280.847198 155.271103,278.196899 155.750046,273.510101 
	C156.128342,269.808319 155.902863,265.871918 155.027847,262.262115 
	C154.092621,258.403931 150.651108,257.012207 146.847382,257.205688 
	C143.000275,257.401428 140.236038,259.362885 139.180756,263.174377 
	C138.698456,264.916351 138.650665,266.778595 138.406097,269.391205 
z"/>
<path fill="#6623EC" opacity="1.000000" stroke="none" 
	d="
M319.475403,251.811081 
	C322.350769,252.205292 325.018066,252.087784 327.176544,253.078674 
	C333.887787,256.159637 333.357819,264.385376 326.888672,268.855164 
	C329.160309,274.376007 331.373962,279.755951 333.660583,285.313263 
	C328.411865,287.054932 326.035858,285.811890 324.663208,280.760529 
	C322.140228,271.476044 321.724518,271.503754 314.406525,272.350189 
	C314.406525,276.667419 314.406525,281.065002 314.406525,285.739349 
	C311.895599,285.739349 309.844482,285.739349 307.544250,285.739349 
	C307.544250,274.481750 307.544250,263.419464 307.544250,251.806427 
	C311.472961,251.806427 315.253784,251.806427 319.475403,251.811081 
M324.906158,259.945068 
	C322.125977,255.498596 318.126617,257.398773 314.150940,257.471741 
	C314.150940,259.901093 314.127777,261.878632 314.164429,263.855103 
	C314.176117,264.486847 314.346344,265.115692 314.433533,265.678009 
	C322.870209,267.223450 324.580444,266.412842 324.906158,259.945068 
z"/>
<path fill="#6520EC" opacity="1.000000" stroke="none" 
	d="
M271.342468,263.746643 
	C274.289062,254.451843 280.379822,250.272919 288.908905,251.353134 
	C297.462799,252.436478 302.273285,257.971741 302.828461,267.369720 
	C303.614105,280.669983 295.438995,288.410828 283.058899,286.089081 
	C276.257507,284.813507 271.721008,279.631561 271.100220,272.104736 
	C270.883545,269.477295 271.179474,266.807526 271.342468,263.746643 
M282.226532,279.436462 
	C288.399445,281.373016 293.109497,280.582336 294.127472,276.257874 
	C295.212006,271.650635 295.150085,266.464355 294.175018,261.828247 
	C293.765045,259.879028 289.733673,257.495544 287.335693,257.481323 
	C284.694702,257.465668 281.175568,259.306244 279.570496,261.472809 
	C276.290466,265.900146 277.760529,274.651337 282.226532,279.436462 
z"/>
<path fill="#6725EC" opacity="1.000000" stroke="none" 
	d="
M211.294174,256.362549 
	C210.954025,253.166748 211.492203,251.567673 214.927902,251.720337 
	C221.069504,251.993195 227.231964,251.797165 233.752625,251.797165 
	C233.752625,253.709122 233.752625,255.408966 233.752625,257.631622 
	C228.726578,257.631622 223.790451,257.631622 218.544281,257.631622 
	C218.544281,260.227631 218.544281,262.312805 218.544281,265.100037 
	C222.815735,265.100037 227.186066,265.100037 231.825119,265.100037 
	C231.825119,267.372040 231.825119,268.948303 231.825119,270.922119 
	C227.485992,270.922119 223.204361,270.922119 218.573181,270.922119 
	C218.573181,274.018219 218.573181,276.738678 218.573181,279.955597 
	C223.586395,279.955597 228.675446,279.955597 234.336075,279.955597 
	C234.433136,282.105652 234.509674,283.801056 234.598724,285.773773 
	C226.729843,285.773773 219.315125,285.773773 211.294006,285.773773 
	C211.294006,276.037445 211.294006,266.428192 211.294174,256.362549 
z"/>
<path fill="#6520EC" opacity="1.000000" stroke="none" 
	d="
M369.975464,279.655273 
	C370.504730,279.879028 370.664429,279.931091 370.828278,279.958496 
	C374.256317,280.531677 378.523102,281.910278 379.733795,277.354156 
	C381.094543,272.233154 376.024048,272.639557 373.029663,271.322754 
	C369.768188,269.888519 365.941620,268.793793 363.635101,266.349274 
	C359.937439,262.430389 361.804657,255.795746 366.552002,253.059952 
	C372.050507,249.891281 379.993256,250.827087 385.458618,255.554947 
	C384.546814,256.958008 383.597656,258.418610 382.906067,259.482819 
	C379.366974,258.645172 376.245789,257.468933 373.087494,257.358948 
	C371.684479,257.310059 370.206512,259.413330 368.762604,260.539703 
	C369.950684,261.906128 370.885590,263.824005 372.384949,264.512451 
	C374.755219,265.600769 377.566437,265.677612 380.079193,266.517273 
	C385.086975,268.190674 387.310699,271.648071 386.996094,276.774384 
	C386.694641,281.685486 383.783722,284.962952 378.744873,286.064545 
	C371.685364,287.607910 365.596893,285.673187 360.942719,280.151489 
	C362.096313,278.740417 363.303741,277.263489 364.583344,275.698273 
	C366.467926,277.113739 368.037872,278.292908 369.975464,279.655273 
z"/>
<path fill="#6520EC" opacity="1.000000" stroke="none" 
	d="
M350.022827,280.213501 
	C353.470062,280.213562 356.434814,280.213562 359.721741,280.213562 
	C359.852814,282.175995 359.959137,283.768311 360.087982,285.697479 
	C352.458466,285.697479 345.052887,285.697479 337.294312,285.697479 
	C337.294312,274.734619 337.294312,263.684845 337.294312,252.246704 
	C344.507507,252.246704 351.861145,252.246704 359.499146,252.246704 
	C359.499146,253.894684 359.499146,255.453308 359.499146,257.476562 
	C354.364716,257.476562 349.436005,257.476562 344.174561,257.476562 
	C344.174561,260.165161 344.174561,262.397858 344.174561,265.289429 
	C348.555450,265.289429 352.936432,265.289429 357.533203,265.289429 
	C357.630768,267.379974 357.698456,268.829895 357.792908,270.853882 
	C353.173248,270.853882 348.780792,270.853882 344.114899,270.853882 
	C344.114899,274.137146 344.114899,276.863678 344.114899,280.213440 
	C346.003448,280.213440 347.771851,280.213440 350.022827,280.213501 
z"/>
<path fill="#631FEC" opacity="1.000000" stroke="none" 
	d="
M167.601593,261.503510 
	C166.526443,258.312836 165.607162,255.490875 164.611679,252.434982 
	C169.412888,250.983734 172.081665,251.808395 173.359558,257.018921 
	C174.957291,263.533630 177.494247,269.818024 180.632004,276.203766 
	C182.715240,269.872375 184.822189,263.548645 186.874619,257.207275 
	C188.698929,251.570740 188.672241,251.562103 195.343552,252.320099 
	C193.480820,258.009491 191.666626,263.593506 189.822784,269.167755 
	C188.520828,273.103729 187.159592,277.020081 185.860840,280.957092 
	C184.931030,283.775696 184.424469,286.193787 180.135437,286.247375 
	C175.627716,286.303741 175.030502,283.802094 174.047150,280.753052 
	C172.011078,274.439972 169.860794,268.163666 167.601593,261.503510 
z"/>
<path fill="#6520EC" opacity="1.000000" stroke="none" 
	d="
M266.526123,271.980164 
	C262.269958,272.057495 258.461609,272.057495 254.303055,272.057495 
	C254.303055,276.835297 254.303055,281.134521 254.303055,285.723358 
	C251.899948,285.723358 249.848755,285.723358 247.558990,285.723358 
	C247.558990,274.455811 247.558990,263.376221 247.558990,252.053741 
	C254.748062,252.053741 261.690460,252.053741 268.863434,252.053741 
	C268.863434,253.741272 268.863434,255.350449 268.863434,257.503265 
	C264.151489,257.503265 259.563293,257.503265 254.595108,257.503265 
	C254.595108,260.573547 254.595108,263.123932 254.595108,266.296936 
	C258.815369,266.296936 263.065063,266.296936 268.114441,266.296936 
	C267.635803,268.649567 267.304871,270.276184 266.526123,271.980164 
z"/>
<path fill="#1E1E1E" opacity="1.000000" stroke="none" 
	d="
M240.084854,215.503479 
	C227.879684,222.785446 215.674530,230.067398 202.364883,238.008331 
	C200.640533,236.671371 197.543564,234.270157 194.688293,231.516876 
	C196.686737,231.426773 198.443481,231.688736 200.329773,231.938293 
	C200.459351,231.925919 200.719025,231.943893 201.085785,231.970215 
	C203.160110,231.831757 204.867691,231.666962 207.226837,231.439285 
	C206.196304,230.280457 205.520416,229.520416 205.042206,228.474701 
	C207.484802,225.871048 209.729675,223.553055 211.895004,220.965347 
	C211.529938,220.469025 211.244431,220.242416 210.980682,220.008026 
	C211.002472,220.000275 210.982544,220.042023 210.881165,219.810181 
	C210.506042,219.391586 210.232300,219.204819 209.979767,219.008636 
	C210.000992,218.999222 209.981964,219.041580 209.880035,218.809967 
	C209.504440,218.390869 209.230759,218.203400 208.981628,218.021225 
	C209.006180,218.026505 208.964401,218.054413 208.977234,217.805237 
	C208.990051,217.556046 209.002045,217.057175 209.351105,217.062378 
	C211.142838,217.700272 212.585526,218.332977 214.014404,218.982849 
	C214.000610,219.000000 214.030548,218.965851 214.067474,219.302612 
	C215.573807,221.442825 216.651703,221.563156 217.190857,218.930328 
	C217.289261,218.916336 217.473343,218.991394 217.863922,219.058823 
	C219.901077,218.531738 221.547653,217.937225 223.208740,217.337479 
	C223.874390,223.718201 226.618210,218.758377 229.048294,218.897079 
	C227.993195,217.273499 227.327637,216.249344 226.508926,214.989502 
	C227.831757,214.599884 229.004166,214.448532 229.982422,213.930527 
	C233.076416,212.292221 233.423859,210.851532 229.281265,210.015991 
	C228.696167,209.806808 228.332886,209.583420 228.167709,209.112305 
	C228.919983,208.238998 229.474167,207.613403 230.334900,207.111389 
	C232.413834,208.166321 234.186203,209.097656 236.368713,210.018692 
	C238.682785,210.600266 240.560974,211.310516 242.501862,211.732529 
	C243.429276,211.934189 245.217773,211.847763 245.355804,211.452087 
	C247.174561,206.238663 248.130081,209.730331 249.528717,211.682587 
	C250.032074,212.385178 251.274307,212.558411 253.024521,213.360580 
	C252.042328,211.269043 251.518036,210.152603 251.401321,209.027039 
	C252.355316,209.004486 252.901718,208.991043 253.525543,208.937378 
	C253.602951,208.897141 253.774673,208.928009 253.947296,209.151703 
	C254.427170,209.579865 254.734451,209.784317 255.016998,209.987213 
	C254.992249,209.985657 255.025955,209.949265 255.061310,210.293030 
	C256.052368,211.473892 257.008057,212.311005 257.917786,213.485657 
	C257.414642,214.281830 256.957458,214.740463 256.500244,215.199112 
	C251.249649,215.389618 245.999054,215.580124 240.479706,215.270416 
	C239.874115,213.591080 239.537262,212.411972 239.200409,211.232864 
	C238.500565,211.664810 237.800735,212.096741 237.100891,212.528687 
	C238.095551,213.520279 239.090195,214.511887 240.084854,215.503479 
M220.124329,221.753281 
	C220.223373,221.997406 220.322403,222.241516 220.421448,222.485641 
	C220.438095,222.156326 220.454758,221.826996 220.124329,221.753281 
z"/>
<path fill="#6725EC" opacity="1.000000" stroke="none" 
	d="
M412.293976,251.830872 
	C413.268524,253.524017 413.812103,255.192932 414.559418,257.487305 
	C410.660980,257.487305 407.712555,257.487305 404.213684,257.487305 
	C404.213684,267.077240 404.213684,276.285492 404.213684,285.753418 
	C401.748016,285.753418 399.825806,285.753418 397.287903,285.753418 
	C397.287903,276.604645 397.287903,267.399078 397.287903,257.878754 
	C393.790710,257.712555 390.871704,257.573822 387.554657,257.416168 
	C387.466583,255.634048 387.388916,254.062592 387.277405,251.806641 
	C395.704193,251.806641 403.783569,251.806641 412.293976,251.830872 
z"/>
<path fill="#242424" opacity="1.000000" stroke="none" 
	d="
M311.742065,231.100372 
	C308.205627,233.601501 304.837189,236.402710 301.078369,238.506531 
	C298.195648,240.120010 294.891968,241.497528 291.650940,241.856979 
	C282.216949,242.903290 277.098419,236.307526 272.191132,229.219376 
	C274.260345,228.724487 276.194183,228.860214 278.421387,229.151382 
	C281.813934,231.480515 284.913147,233.654205 288.131348,236.087357 
	C288.846649,236.218307 289.442902,236.089813 290.276978,235.810211 
	C290.643860,235.128967 290.772980,234.598831 291.328766,234.050247 
	C292.326477,233.994476 292.897461,233.957153 293.816711,233.998352 
	C297.755646,233.355942 301.346344,232.634995 304.988403,232.242523 
	C306.656921,232.208282 308.274017,231.845581 310.169220,231.552689 
	C310.878876,231.448471 311.310486,231.274414 311.742065,231.100372 
z"/>
<path fill="#631FEC" opacity="1.000000" stroke="none" 
	d="
M198.100098,254.295380 
	C200.051895,252.928818 201.996506,252.033737 204.663513,250.806152 
	C204.663513,263.147400 204.663513,274.228394 204.663513,285.663574 
	C202.714493,285.663574 200.674149,285.663574 198.092926,285.663574 
	C198.092926,275.328735 198.092926,265.047791 198.100098,254.295380 
z"/>
<path fill="#333333" opacity="1.000000" stroke="none" 
	d="
M167.959396,205.983231 
	C177.535751,199.462906 187.203812,193.108429 198.619858,189.602081 
	C199.001343,191.636551 199.007492,193.305206 198.727325,195.151337 
	C196.244217,196.294052 194.047424,197.259262 191.313583,198.460464 
	C191.994400,199.020111 193.074280,199.907776 193.939636,200.946152 
	C194.166672,201.383698 194.608246,201.670547 195.034180,201.981461 
	C195.018539,202.005539 195.025070,201.949051 195.085236,202.208160 
	C195.444595,202.635284 195.743759,202.803314 196.025024,202.965912 
	C196.007126,202.960480 196.047256,202.950394 196.011566,203.221786 
	C196.020828,203.851227 196.065811,204.209259 196.062683,204.990356 
	C196.013519,205.982269 196.012466,206.551147 195.682159,207.005859 
	C190.723282,203.130859 186.055222,199.582626 179.946014,203.750793 
	C179.622025,202.764648 179.281113,202.132919 178.940186,201.501205 
	C178.628113,202.335495 178.316040,203.169769 177.723938,203.891937 
	C176.754211,203.473373 176.064484,203.166946 175.374786,202.860504 
	C175.285065,203.479706 175.195358,204.098892 175.105652,204.718109 
	C176.099548,204.838837 177.093475,204.959579 178.017944,205.404816 
	C176.303528,206.829178 174.658554,207.929047 172.968506,208.661163 
	C171.268738,207.523346 169.614075,206.753296 167.959396,205.983231 
z"/>
<path fill="#1E1E1E" opacity="1.000000" stroke="none" 
	d="
M291.940826,218.758881 
	C292.496918,217.492371 292.725525,215.858002 293.664764,215.021881 
	C298.160400,211.019775 302.848541,207.233902 307.779541,203.110901 
	C313.547546,207.410202 319.597168,211.919434 325.643677,216.978973 
	C324.073242,217.358932 322.505951,217.188599 320.961548,217.006592 
	C320.984467,216.994904 321.001099,217.042892 320.861511,216.752884 
	C320.325134,216.311737 319.928284,216.160599 319.268066,215.817932 
	C315.479645,213.080902 311.954590,210.535431 308.573212,208.093704 
	C306.726471,209.818680 305.539734,210.927139 304.016479,212.135132 
	C303.466217,212.636948 303.252502,213.039246 302.810577,213.671051 
	C302.096588,215.207626 301.610809,216.514709 300.809204,217.979324 
	C299.619568,218.429581 298.745758,218.722305 297.568268,219.025681 
	C296.860077,219.043121 296.455505,219.049881 296.051727,218.719284 
	C294.279083,214.113358 293.173981,217.134537 291.940826,218.758881 
z"/>
<path fill="#333333" opacity="1.000000" stroke="none" 
	d="
M209.940536,186.270309 
	C213.203064,186.070709 216.602402,184.835754 219.413803,187.880783 
	C219.666428,188.154388 221.405746,187.005737 222.481232,186.585709 
	C223.273651,186.276245 224.109451,186.077866 225.167297,185.908020 
	C225.408676,185.986069 225.432587,186.247589 225.134186,186.290268 
	C224.058380,191.999100 219.358185,190.839066 215.246735,191.175369 
	C219.125809,195.726089 222.608246,199.811508 225.790039,204.038757 
	C224.891846,204.473831 224.294296,204.767059 223.365280,204.979584 
	C218.444778,200.431534 213.855743,195.964188 209.195190,191.427231 
	C208.121536,192.018417 207.118942,192.570496 206.118805,192.796875 
	C206.077789,192.258469 206.034332,192.045731 205.990326,191.630905 
	C205.989792,191.428833 205.997345,191.024765 206.199921,190.849792 
	C206.858765,190.144043 207.315048,189.613281 208.121429,189.043182 
	C208.961182,188.092651 209.450851,187.181473 209.940536,186.270309 
z"/>
<path fill="#242424" opacity="1.000000" stroke="none" 
	d="
M167.589905,205.962952 
	C169.614075,206.753296 171.268738,207.523346 172.967499,208.646255 
	C173.011581,208.999115 173.034210,209.009140 172.711929,209.047638 
	C170.705063,212.143188 172.917343,212.517609 175.029205,212.974976 
	C175.010178,213.001892 175.038589,212.946136 175.107697,213.130936 
	C175.455627,213.204910 175.734451,213.094101 176.321503,213.034378 
	C177.128067,213.682983 177.626404,214.280518 177.939346,215.044647 
	C178.252213,215.451004 178.750458,215.690750 179.583099,215.950699 
	C180.961044,216.915314 182.004593,217.859726 183.063599,219.150787 
	C183.738968,219.983032 184.398895,220.468658 185.037842,220.979645 
	C185.016876,221.005005 185.029465,220.940521 185.157425,221.251312 
	C186.877106,222.693588 188.468811,223.825073 190.060928,224.945740 
	C190.061325,224.934921 190.088226,224.911407 190.206909,225.238770 
	C191.178177,227.168915 192.030746,228.771667 192.883331,230.374435 
	C184.021133,223.398911 175.157288,216.425461 166.301071,209.442352 
	C165.797440,209.045242 165.356369,208.568817 164.466156,207.736664 
	C165.537933,207.038574 166.379181,206.490631 167.589905,205.962952 
z"/>
<path fill="#404040" opacity="1.000000" stroke="none" 
	d="
M320.938660,217.018265 
	C322.505951,217.188599 324.073242,217.358932 325.836304,217.238861 
	C326.518158,217.879913 327.575165,219.503601 327.407257,219.642136 
	C322.613068,223.596298 317.695801,227.401184 312.270294,231.165344 
	C311.310486,231.274414 310.878876,231.448471 309.974792,231.275146 
	C309.270081,230.542999 309.037872,230.158218 308.810730,229.630371 
	C308.815765,229.487320 308.859680,229.204407 308.910889,228.833527 
	C308.976257,227.967239 308.990356,227.471848 309.370300,226.955841 
	C313.470306,223.629593 317.204468,220.323929 320.938660,217.018265 
z"/>
<path fill="#9B69FF" opacity="1.000000" stroke="none" 
	d="
M121.333359,308.665680 
	C121.314232,307.400940 121.231987,306.559662 121.324577,305.738129 
	C121.575806,303.508972 120.183372,300.337158 124.406754,300.319916 
	C127.971596,300.305389 130.383087,301.322876 129.420120,305.570160 
	C129.029984,307.290894 128.549454,310.464508 128.133179,310.460663 
	C125.868134,310.439880 123.610298,309.633911 121.333359,308.665680 
z"/>
<path fill="#9B69FF" opacity="1.000000" stroke="none" 
	d="
M222.843201,303.493317 
	C222.844025,306.134064 222.844025,308.368164 222.844025,310.602264 
	C222.330444,310.635895 221.816864,310.669525 221.303284,310.703156 
	C221.115829,309.126740 220.928375,307.550354 220.666809,305.350769 
	C219.483124,307.010193 218.526672,308.351044 217.354477,309.994354 
	C216.254959,309.033997 215.234146,308.142365 214.098785,307.150696 
	C213.686401,308.465118 213.314026,309.652069 212.941650,310.838989 
	C212.618698,310.801941 212.295761,310.764893 211.972809,310.727844 
	C211.972809,307.368073 211.972809,304.008270 211.972809,300.648499 
	C212.336929,300.532715 212.701050,300.416901 213.065170,300.301117 
	C214.279160,302.129974 215.493149,303.958862 217.170959,306.486481 
	C218.177032,304.705292 218.816650,303.087341 219.869705,301.810333 
	C222.016434,299.207001 222.703049,300.660492 222.843201,303.493317 
z"/>
<path fill="#9B69FF" opacity="1.000000" stroke="none" 
	d="
M376.478333,304.390991 
	C377.468170,302.773010 378.270081,301.463470 379.071960,300.153931 
	C379.469910,300.278442 379.867859,300.402954 380.265808,300.527496 
	C380.265808,303.882355 380.265808,307.237183 380.265808,310.592041 
	C379.916626,310.639832 379.567413,310.687653 379.218231,310.735474 
	C379.073578,309.105927 378.928955,307.476379 378.728851,305.221863 
	C377.471008,307.000366 376.482239,308.398438 374.756470,310.838562 
	C374.002899,309.373230 373.408661,308.217712 372.438049,306.330322 
	C371.710907,308.469086 371.296875,309.686981 370.882812,310.904846 
	C370.553680,310.860443 370.224579,310.816071 369.895447,310.771667 
	C369.895447,307.435242 369.895447,304.098846 369.895447,300.762451 
	C370.258972,300.596008 370.622467,300.429596 370.985992,300.263184 
	C371.966888,301.768066 372.838379,303.367065 373.999481,304.716949 
	C374.321350,305.091064 375.503113,304.725555 376.478333,304.390991 
z"/>
<path fill="#9B69FF" opacity="1.000000" stroke="none" 
	d="
M359.635742,300.347412 
	C363.859863,301.064301 365.913940,302.620361 363.678009,306.871307 
	C363.133606,307.906342 363.597015,309.471466 363.597015,311.190186 
	C361.280670,309.904266 359.231384,304.782990 357.236877,311.029175 
	C354.711884,305.412506 355.552307,301.295959 359.635742,300.347412 
z"/>
<path fill="#333333" opacity="1.000000" stroke="none" 
	d="
M246.068512,193.105576 
	C247.281891,193.352737 248.495255,193.599899 249.932297,194.325714 
	C250.438309,194.862671 250.720673,194.920944 251.003021,194.979218 
	C251.626297,195.357300 252.249557,195.735397 252.969757,196.767609 
	C253.390976,199.010117 253.715256,200.598495 253.725769,202.171356 
	C252.934555,201.798859 252.457123,201.441910 251.831299,200.817780 
	C251.117615,200.368851 250.552277,200.187088 249.681854,199.985214 
	C248.677338,200.223572 247.977905,200.482025 246.844742,200.843536 
	C246.119370,200.996857 245.827744,201.047119 245.396240,201.038910 
	C245.077789,200.862320 244.966309,200.698532 244.927979,200.091949 
	C244.121002,198.815384 243.307953,197.935989 242.221054,197.043732 
	C241.275345,196.445724 240.603500,195.860565 239.953552,194.966187 
	C239.973846,194.450348 239.972229,194.243698 240.237793,193.848831 
	C241.305145,193.203537 242.057053,192.570496 242.917862,192.334274 
	C243.974075,192.044418 245.121338,192.086288 246.229233,191.984756 
	C246.276077,192.212936 246.322922,192.441116 245.863052,193.199402 
	C245.697693,194.180725 246.039078,194.631927 246.380447,195.083145 
	C246.276459,194.423950 246.172485,193.764771 246.068512,193.105576 
z"/>
<path fill="#A171FF" opacity="1.000000" stroke="none" 
	d="
M342.568237,301.516418 
	C346.446991,299.573090 349.840149,300.068878 350.970825,303.951752 
	C351.501709,305.774963 349.906952,309.803741 348.487915,310.233704 
	C346.396454,310.867432 343.021271,309.800476 341.337799,308.230286 
	C340.425079,307.378967 341.883789,303.985077 342.568237,301.516418 
M349.216095,306.453674 
	C348.156616,305.072632 347.224060,303.541962 345.926575,302.441528 
	C345.678131,302.230804 343.364349,303.549164 343.126221,304.456696 
	C342.813171,305.649780 343.612030,307.134644 343.932739,308.494049 
	C345.618805,308.078796 347.304840,307.663544 349.216095,306.453674 
z"/>
<path fill="#9B69FF" opacity="1.000000" stroke="none" 
	d="
M173.754074,306.884064 
	C173.108047,307.553436 172.849396,308.194946 172.590729,308.836426 
	C173.961334,309.123474 175.331924,309.410522 176.702530,309.697540 
	C176.696915,309.976227 176.691284,310.254913 176.685669,310.533600 
	C174.448410,310.533600 172.211151,310.533600 169.197479,310.533600 
	C169.455170,307.413116 169.189819,304.022614 170.280182,301.145996 
	C170.642563,300.189911 174.485214,300.553040 176.736786,300.313049 
	C176.797882,300.776093 176.858963,301.239136 176.920044,301.702179 
	C175.260788,302.255981 173.601547,302.809753 170.543671,303.830353 
	C173.372650,304.647583 174.800446,305.060028 176.986069,305.691406 
	C175.646820,306.239777 174.894135,306.547974 173.754074,306.884064 
z"/>
<path fill="#242424" opacity="1.000000" stroke="none" 
	d="
M246.128006,191.782272 
	C245.121338,192.086288 243.974075,192.044418 242.917862,192.334274 
	C242.057053,192.570496 241.305145,193.203537 239.968323,193.840088 
	C239.251846,194.014709 239.071976,194.009857 238.539062,193.964661 
	C235.362000,192.232544 232.538010,190.540787 229.831131,188.556107 
	C230.788406,187.787354 231.628555,187.311523 232.468704,186.835709 
	C236.988068,188.417068 241.507416,189.998428 246.128006,191.782272 
z"/>
<path fill="#9B69FF" opacity="1.000000" stroke="none" 
	d="
M305.244812,307.185944 
	C306.444122,304.689178 307.497681,302.533783 309.300140,298.846313 
	C311.415283,303.499969 312.905212,306.778107 315.033386,311.460449 
	C310.772522,308.968384 307.580597,307.223755 304.140686,310.534119 
	C304.460144,309.531860 304.779602,308.529602 305.244812,307.185944 
z"/>
<path fill="#9B69FF" opacity="1.000000" stroke="none" 
	d="
M227.902069,303.105530 
	C229.821396,302.014740 231.607239,300.512939 233.269455,300.639191 
	C236.592285,300.891510 238.773834,303.104187 238.177170,306.697662 
	C237.581909,310.282654 234.874039,311.671143 231.568863,310.902100 
	C227.687408,309.998962 226.230774,307.351105 227.902069,303.105530 
M233.343018,302.294525 
	C231.950195,303.529724 230.412979,304.653900 229.298691,306.103241 
	C229.099930,306.361725 230.570801,308.689606 231.418289,308.787750 
	C232.785706,308.946075 234.275711,308.045715 235.713943,307.592529 
	C235.159653,305.925018 234.605362,304.257538 233.343018,302.294525 
z"/>
<path fill="#9B69FF" opacity="1.000000" stroke="none" 
	d="
M269.965393,309.596283 
	C268.098480,310.398621 265.958740,310.956848 263.261475,311.660492 
	C263.261475,307.610321 263.261475,304.397034 263.261475,300.856018 
	C265.430786,300.856018 267.676849,300.856018 269.922943,300.856018 
	C269.956421,301.143524 269.989868,301.431000 270.023346,301.718506 
	C268.357422,302.271729 266.691498,302.824921 265.025574,303.378143 
	C265.041809,303.680847 265.058014,303.983521 265.074249,304.286224 
	C266.526398,304.671722 267.978546,305.057220 270.544098,305.738312 
	C268.149658,306.521484 266.654785,307.010437 265.159882,307.499390 
	C265.107056,307.819946 265.054199,308.140472 265.001373,308.461029 
	C266.565094,308.758057 268.128845,309.055084 269.965393,309.596283 
z"/>
<path fill="#9B69FF" opacity="1.000000" stroke="none" 
	d="
M158.056854,300.990356 
	C160.154297,300.972015 161.908936,301.072021 163.859512,301.183167 
	C161.117737,302.933716 158.962311,304.210632 157.009720,305.745544 
	C156.853912,305.868042 158.189529,308.724457 158.677475,308.678253 
	C160.399109,308.515198 162.053421,307.641235 164.209091,306.865692 
	C164.037598,307.634338 164.077530,309.863434 163.374008,310.129883 
	C161.672882,310.774261 159.196350,311.221710 157.831757,310.407990 
	C156.328537,309.511658 155.063614,307.164307 154.934906,305.360596 
	C154.838974,304.016235 156.715820,302.531128 158.056854,300.990356 
z"/>
<path fill="#A171FF" opacity="1.000000" stroke="none" 
	d="
M184.360443,300.439575 
	C186.022995,300.681122 187.339676,301.008362 188.656357,301.335602 
	C188.631851,301.703003 188.607346,302.070374 188.582840,302.437775 
	C187.182434,302.673706 185.782028,302.909637 184.135315,303.187042 
	C185.500671,305.730743 191.334671,305.529907 188.255417,309.715179 
	C186.341415,312.316650 183.425522,311.382385 180.141449,308.704071 
	C183.020798,308.704071 184.775970,308.704071 186.574432,308.704071 
	C186.170044,305.597656 176.364441,305.861694 184.360443,300.439575 
z"/>
<path fill="#2F2F2F" opacity="1.000000" stroke="none" 
	d="
M254.039536,202.186890 
	C253.715256,200.598495 253.390976,199.010117 253.102112,197.011444 
	C255.959167,199.204559 258.780853,201.807953 261.880371,204.614807 
	C262.158234,204.818283 262.066437,204.679565 262.066437,204.679565 
	C262.334412,205.135788 262.602386,205.592010 262.983521,206.826996 
	C263.077667,208.401749 263.058655,209.197769 262.812012,209.920715 
	C262.056915,209.881149 261.529480,209.914642 260.758728,209.965240 
	C260.515442,209.982330 260.031952,210.046570 260.026031,210.039307 
	C260.020111,210.032028 260.029602,210.048843 259.910217,209.704468 
	C258.514282,207.610764 257.237701,205.861404 255.949158,203.775787 
	C255.512344,202.989655 255.087509,202.539795 254.509399,202.130371 
	C254.356140,202.170807 254.039536,202.186890 254.039536,202.186890 
z"/>
<path fill="#9B69FF" opacity="1.000000" stroke="none" 
	d="
M282.623260,310.625244 
	C282.227570,307.331757 282.227570,304.118652 282.227570,301.045410 
	C288.466370,297.692322 287.099182,304.158142 288.980042,305.886322 
	C287.012115,307.477356 285.015533,309.091492 282.623260,310.625244 
z"/>
<path fill="#A171FF" opacity="1.000000" stroke="none" 
	d="
M149.713287,302.320831 
	C149.149597,302.733643 148.607559,302.639709 148.191620,302.826538 
	C146.476959,303.596558 144.800598,304.451782 143.110153,305.275665 
	C143.777786,306.475067 144.402313,308.644348 145.121857,308.676300 
	C146.725677,308.747620 148.376984,307.751160 150.789307,306.921387 
	C150.301132,308.004059 149.667938,310.450256 149.126221,310.430176 
	C146.718292,310.340881 143.780792,310.187073 142.146729,308.772278 
	C141.109741,307.874420 141.230957,304.179047 142.240677,302.698303 
	C144.029465,300.075012 146.979019,299.260529 149.713287,302.320831 
z"/>
<path fill="#515151" opacity="1.000000" stroke="none" 
	d="
M263.039673,209.993774 
	C263.058655,209.197769 263.077667,208.401749 263.098816,207.207550 
	C265.818176,209.055328 268.535370,211.301315 271.610718,213.932281 
	C271.979065,214.494019 271.989319,214.670761 271.669373,214.922974 
	C270.233643,216.386261 269.128052,217.774048 267.886108,218.854279 
	C266.517914,217.347702 265.285980,216.148682 263.911469,214.697510 
	C263.442017,213.968414 263.115173,213.491455 263.102325,212.901367 
	C264.121277,212.158066 264.826233,211.527908 266.002747,210.476242 
	C264.531586,210.236694 263.785645,210.115234 263.039673,209.993774 
z"/>
<path fill="#A171FF" opacity="1.000000" stroke="none" 
	d="
M244.913940,304.015747 
	C245.476181,305.411469 245.917038,306.473785 246.519211,307.924805 
	C247.828323,305.166931 248.978424,302.744080 250.128510,300.321259 
	C250.614548,300.533905 251.100586,300.746582 251.586624,300.959259 
	C250.235138,304.339661 248.883667,307.720093 247.532181,311.100525 
	C246.943008,311.197693 246.353836,311.294891 245.764664,311.392059 
	C244.380402,308.019745 242.996155,304.647461 241.611893,301.275146 
	C242.073334,301.007080 242.534775,300.738983 242.996216,300.470917 
	C243.594986,301.541382 244.193771,302.611847 244.913940,304.015747 
z"/>
<path fill="#9B69FF" opacity="1.000000" stroke="none" 
	d="
M329.989929,305.033417 
	C329.498627,298.285950 333.519440,300.642090 336.731720,301.567810 
	C335.136597,302.043121 333.541473,302.518402 331.946350,302.993713 
	C331.938110,303.382782 331.929901,303.771851 331.921692,304.160919 
	C333.415192,304.653076 334.908722,305.145233 336.222534,305.578186 
	C334.375427,307.102936 332.553802,308.606689 330.255035,310.504303 
	C330.177032,309.024414 330.083466,307.248505 329.989929,305.033417 
z"/>
<path fill="#A171FF" opacity="1.000000" stroke="none" 
	d="
M294.340454,301.875244 
	C296.579254,301.274994 296.586395,301.274689 296.701660,303.926605 
	C296.820831,306.668304 295.684204,310.193176 301.885193,309.092102 
	C301.451752,309.648956 301.018341,310.205841 300.584900,310.762695 
	C298.700500,310.855408 296.816071,310.948090 294.288574,311.072449 
	C294.288574,307.836151 294.288574,305.047852 294.340454,301.875244 
z"/>
<path fill="#9B69FF" opacity="1.000000" stroke="none" 
	d="
M322.815216,309.484711 
	C322.138092,309.280731 321.192139,308.758698 320.956635,308.012482 
	C320.273682,305.848511 319.875885,303.594513 319.259613,300.911987 
	C320.593781,300.911987 323.114563,300.911987 324.507385,300.911987 
	C323.946320,303.707092 323.408630,306.385681 322.815216,309.484711 
z"/>
<path fill="#9B69FF" opacity="1.000000" stroke="none" 
	d="
M196.863541,310.651489 
	C195.714462,307.514648 194.985916,304.341339 194.178085,300.822723 
	C195.578629,300.822723 198.052704,300.822723 199.813065,300.822723 
	C198.982193,304.039825 198.133133,307.327454 196.863541,310.651489 
z"/>
<path fill="#1E1E1E" opacity="1.000000" stroke="none" 
	d="
M281.692871,217.463013 
	C283.427887,217.730789 285.162903,217.998566 286.959534,218.648621 
	C287.021149,219.030884 287.007324,218.957077 286.657715,219.040009 
	C285.860474,219.431549 285.412842,219.740158 284.965210,220.048798 
	C285.595886,220.329773 286.226532,220.610748 286.917023,221.008423 
	C286.976837,221.125122 287.133453,221.335480 287.132507,221.663269 
	C288.062622,224.011032 288.993683,226.031006 289.618713,228.043549 
	C288.903717,228.042740 288.494751,228.049393 287.940887,227.760193 
	C286.532684,226.314606 285.269379,225.164841 284.175812,223.922729 
	C284.230774,223.552811 284.115997,223.275253 283.889343,222.771240 
	C283.505524,222.353546 283.233612,222.162308 282.846375,221.731033 
	C282.459320,221.259018 282.187592,221.027039 281.839905,220.664124 
	C281.651031,220.363953 281.515564,220.215256 281.158752,219.826202 
	C280.559021,219.047638 280.158112,218.529938 280.247864,217.898819 
	C281.056671,217.677948 281.374786,217.570480 281.692871,217.463013 
z"/>
<path fill="#333333" opacity="1.000000" stroke="none" 
	d="
M278.128021,228.995926 
	C276.194183,228.860214 274.260345,228.724487 272.111938,228.887604 
	C270.264465,226.912018 268.631592,224.637604 267.263916,221.823517 
	C268.703308,221.870422 269.877472,222.457031 271.036224,223.379700 
	C272.056885,224.134445 273.092957,224.553146 274.442902,225.032333 
	C275.880524,226.393845 277.004272,227.694885 278.128021,228.995926 
z"/>
<path fill="#333333" opacity="1.000000" stroke="none" 
	d="
M291.662720,218.664764 
	C293.173981,217.134537 294.279083,214.113358 295.789368,218.984222 
	C292.728638,220.169525 289.931061,220.752502 287.133453,221.335480 
	C287.133453,221.335480 286.976837,221.125122 286.968658,220.687195 
	C286.976105,219.818527 286.991730,219.387802 287.007324,218.957077 
	C287.007324,218.957077 287.021149,219.030884 286.990173,219.051727 
	C288.434326,218.905243 289.909454,218.737946 291.662720,218.664764 
z"/>
<path fill="#333333" opacity="1.000000" stroke="none" 
	d="
M264.054077,214.949646 
	C265.285980,216.148682 266.517914,217.347702 267.915771,219.053833 
	C268.081757,219.560928 268.208160,219.945465 267.869904,219.971039 
	C266.359100,219.986267 265.186523,219.975922 264.013977,219.965576 
	C262.819916,219.120850 261.625885,218.276123 260.260773,216.881546 
	C261.411163,215.871017 262.732635,215.410324 264.054077,214.949646 
z"/>
<path fill="#2F2F2F" opacity="1.000000" stroke="none" 
	d="
M192.932007,230.569656 
	C192.030746,228.771667 191.178177,227.168915 190.568542,225.257721 
	C193.941055,227.283096 197.070633,229.616898 200.200211,231.950684 
	C198.443481,231.688736 196.686737,231.426773 194.481430,231.219208 
	C193.682129,231.104034 193.331406,230.934464 192.932007,230.569656 
z"/>
<path fill="#242424" opacity="1.000000" stroke="none" 
	d="
M264.167786,220.228378 
	C265.186523,219.975922 266.359100,219.986267 268.249390,219.997025 
	C269.733246,219.995300 270.499359,219.993149 271.373413,219.973663 
	C271.481415,219.956314 271.698395,219.928955 271.889374,220.221756 
	C272.682373,221.713272 273.284424,222.912003 273.580444,224.075989 
	C272.533478,223.708710 271.792572,223.376175 271.051636,223.043625 
	C269.877472,222.457031 268.703308,221.870422 267.387634,221.415100 
	C266.271301,221.194641 265.296448,220.842911 264.167786,220.228378 
z"/>
<path fill="#A171FF" opacity="1.000000" stroke="none" 
	d="
M232.458496,186.527283 
	C231.628555,187.311523 230.788406,187.787354 229.529358,188.617783 
	C228.517960,188.900314 227.925476,188.828232 227.215302,188.730453 
	C227.097626,188.704758 226.843140,188.354553 226.526657,188.062469 
	C225.950974,187.262787 225.691788,186.755188 225.432587,186.247589 
	C225.432587,186.247589 225.408676,185.986069 225.481354,185.960815 
	C227.852112,186.029984 230.150208,186.124420 232.458496,186.527283 
z"/>
<path fill="#1E1E1E" opacity="1.000000" stroke="none" 
	d="
M205.997345,191.024780 
	C205.997345,191.024765 205.989792,191.428833 205.747162,191.768707 
	C205.335892,192.420624 205.167282,192.732666 204.996338,193.024109 
	C204.994003,193.003540 205.034256,193.011063 204.671204,192.967316 
	C202.856873,191.590652 201.405594,190.257736 199.954315,188.924805 
	C201.336624,188.468079 202.718933,188.011353 204.550293,187.901627 
	C204.990219,188.452087 204.981094,188.655579 204.758606,189.166962 
	C205.029266,189.991501 205.513306,190.508133 205.997345,191.024780 
z"/>
<path fill="#242424" opacity="1.000000" stroke="none" 
	d="
M263.911469,214.697510 
	C262.732635,215.410324 261.411163,215.871017 260.050354,216.646454 
	C258.980072,216.547852 257.949219,216.134491 256.709290,215.460114 
	C256.957458,214.740463 257.414642,214.281830 258.173004,213.318939 
	C258.980896,212.212448 259.487610,211.610229 260.127747,211.288330 
	C261.103546,212.050613 261.945953,212.532562 262.788330,213.014496 
	C263.115173,213.491455 263.442017,213.968414 263.911469,214.697510 
z"/>
<path fill="#515151" opacity="1.000000" stroke="none" 
	d="
M199.694489,188.906616 
	C201.405594,190.257736 202.856873,191.590652 204.455231,193.252670 
	C202.739410,194.045792 200.876526,194.509827 199.013641,194.973846 
	C199.007492,193.305206 199.001343,191.636551 198.985443,189.551361 
	C199.128693,189.052673 199.281677,188.970535 199.694489,188.906616 
z"/>
<path fill="#404040" opacity="1.000000" stroke="none" 
	d="
M281.400146,217.266541 
	C281.374786,217.570480 281.056671,217.677948 279.906006,217.974777 
	C278.738312,218.967651 278.403198,219.771133 277.797424,220.688538 
	C276.658905,220.291397 275.791046,219.780334 275.016479,218.921631 
	C275.185760,218.346878 275.261810,218.119736 275.641388,217.854431 
	C276.315979,217.161972 276.687012,216.507675 277.058075,215.853378 
	C278.407837,216.258942 279.757629,216.664505 281.400146,217.266541 
z"/>
<path fill="#2F2F2F" opacity="1.000000" stroke="none" 
	d="
M276.834137,215.622803 
	C276.687012,216.507675 276.315979,217.161972 275.450317,217.568375 
	C273.976990,216.885422 272.998260,216.450363 272.025818,215.723145 
	C272.021271,215.236511 272.010406,215.041992 271.999542,214.847488 
	C271.989319,214.670761 271.979065,214.494019 271.925720,214.055237 
	C273.458466,214.326218 275.034332,214.859222 276.834137,215.622803 
z"/>
<path fill="#030303" opacity="1.000000" stroke="none" 
	d="
M204.971970,188.859070 
	C204.981094,188.655579 204.990219,188.452087 204.916107,187.954590 
	C206.310150,187.192886 207.787384,186.725204 209.602585,186.263916 
	C209.450851,187.181473 208.961182,188.092651 207.894196,188.980988 
	C206.535248,188.925110 205.753616,188.892090 204.971970,188.859070 
z"/>
<path fill="#242424" opacity="1.000000" stroke="none" 
	d="
M246.029755,193.128448 
	C246.172485,193.764771 246.276459,194.423950 246.380447,195.083145 
	C246.039078,194.631927 245.697693,194.180725 245.585266,193.411331 
	C245.814194,193.093155 245.991013,193.151321 246.029755,193.128448 
z"/>
<path fill="#2F2F2F" opacity="1.000000" stroke="none" 
	d="
M250.849380,194.753906 
	C250.720673,194.920944 250.438309,194.862671 250.168091,194.577469 
	C250.352051,194.409897 250.523895,194.469254 250.849380,194.753906 
z"/>
<path fill="#333333" opacity="1.000000" stroke="none" 
	d="
M262.120178,204.698639 
	C262.066437,204.679565 262.158234,204.818283 262.177124,204.859314 
	C262.196045,204.900330 262.173950,204.717728 262.120178,204.698639 
z"/>
<path fill="#FBF9FE" opacity="1.000000" stroke="none" 
	d="
M138.405945,268.988770 
	C138.650665,266.778595 138.698456,264.916351 139.180756,263.174377 
	C140.236038,259.362885 143.000275,257.401428 146.847382,257.205688 
	C150.651108,257.012207 154.092621,258.403931 155.027847,262.262115 
	C155.902863,265.871918 156.128342,269.808319 155.750046,273.510101 
	C155.271103,278.196899 151.626862,280.847198 147.028305,280.578278 
	C142.489243,280.312897 139.630905,277.970612 138.913315,273.340057 
	C138.710144,272.029083 138.573334,270.707764 138.405945,268.988770 
z"/>
<path fill="#FBF9FE" opacity="1.000000" stroke="none" 
	d="
M324.979279,260.362579 
	C324.580444,266.412842 322.870209,267.223450 314.433533,265.678009 
	C314.346344,265.115692 314.176117,264.486847 314.164429,263.855103 
	C314.127777,261.878632 314.150940,259.901093 314.150940,257.471741 
	C318.126617,257.398773 322.125977,255.498596 324.979279,260.362579 
z"/>
<path fill="#FBF9FE" opacity="1.000000" stroke="none" 
	d="
M281.905151,279.224548 
	C277.760529,274.651337 276.290466,265.900146 279.570496,261.472809 
	C281.175568,259.306244 284.694702,257.465668 287.335693,257.481323 
	C289.733673,257.495544 293.765045,259.879028 294.175018,261.828247 
	C295.150085,266.464355 295.212006,271.650635 294.127472,276.257874 
	C293.109497,280.582336 288.399445,281.373016 281.905151,279.224548 
z"/>
<path fill="#010101" opacity="1.000000" stroke="none" 
	d="
M200.329773,231.938293 
	C197.070633,229.616898 193.941055,227.283096 190.449860,224.930359 
	C190.088226,224.911407 190.061325,224.934921 190.017807,224.597778 
	C188.326004,223.153946 186.677734,222.047241 185.029465,220.940521 
	C185.029465,220.940521 185.016876,221.005005 184.994202,220.661377 
	C184.330414,219.813202 183.689285,219.308670 183.048157,218.804138 
	C182.004593,217.859726 180.961044,216.915314 179.424759,215.743683 
	C178.662933,215.303650 178.393829,215.090836 178.124725,214.878036 
	C177.626404,214.280518 177.128067,213.682983 176.078735,213.000229 
	C175.527710,212.914993 175.038589,212.946136 175.038589,212.946136 
	C175.038589,212.946136 175.010178,213.001892 174.984451,212.647583 
	C174.317230,211.198578 173.675720,210.103851 173.034210,209.009140 
	C173.034210,209.009140 173.011581,208.999115 173.012573,209.014008 
	C174.658554,207.929047 176.303528,206.829178 178.006088,205.392441 
	C178.063675,205.055573 178.043976,205.053940 178.311920,204.985062 
	C178.811035,204.631927 179.042221,204.347672 179.436462,204.087250 
	C179.599518,204.111099 179.929077,204.105209 179.929077,204.105209 
	C186.055222,199.582626 190.723282,203.130859 195.848816,207.219757 
	C197.194000,207.384491 198.043304,207.221191 199.151459,207.293869 
	C200.281265,207.692093 201.152191,207.854324 202.014496,208.005524 
	C202.005875,207.994476 201.981384,207.980804 201.869720,208.309845 
	C201.863251,209.088791 201.968460,209.538696 201.838776,210.118393 
	C201.699020,210.830353 201.794144,211.412521 201.940369,212.341476 
	C204.315796,214.476990 206.640091,216.265701 208.964401,218.054413 
	C208.964401,218.054413 209.006180,218.026505 209.069183,218.264038 
	C209.415436,218.681564 209.698700,218.861572 209.981964,219.041580 
	C209.981964,219.041580 210.000992,218.999222 210.067230,219.250824 
	C210.416504,219.682281 210.699524,219.862152 210.982544,220.042023 
	C210.982544,220.042023 211.002472,220.000275 211.076859,220.262634 
	C211.425674,220.761673 211.700104,220.998367 211.974548,221.235046 
	C209.729675,223.553055 207.484802,225.871048 204.737823,228.592407 
	C203.063492,229.978485 201.891251,230.961182 200.719025,231.943878 
	C200.719025,231.943893 200.459351,231.925919 200.329773,231.938293 
z"/>
<path fill="#030303" opacity="1.000000" stroke="none" 
	d="
M198.727325,195.151337 
	C200.876526,194.509827 202.739410,194.045792 204.818268,193.296417 
	C205.034256,193.011063 204.994003,193.003540 205.274841,193.057159 
	C205.742569,193.114700 205.929459,193.118637 206.116348,193.122559 
	C207.118942,192.570496 208.121536,192.018417 209.195190,191.427231 
	C213.855743,195.964188 218.444778,200.431534 223.570831,205.248077 
	C225.395096,206.851517 226.682358,208.105774 227.969620,209.360031 
	C228.332886,209.583420 228.696167,209.806808 229.356140,210.359177 
	C225.593018,213.455917 221.533188,216.223648 217.473343,218.991394 
	C217.473343,218.991394 217.289261,218.916336 216.804932,218.959290 
	C215.557236,218.990097 214.793900,218.977966 214.030548,218.965851 
	C214.030548,218.965851 214.000610,219.000000 213.998291,218.638062 
	C211.676590,216.500671 209.357208,214.725235 207.016434,212.960739 
	C206.995041,212.971680 207.042068,212.977448 207.026978,212.687927 
	C206.681976,212.251251 206.352051,212.104095 206.024872,211.980621 
	C206.027588,212.004303 206.048615,211.960587 206.059540,211.616211 
	C204.707443,210.174820 203.344421,209.077820 201.981384,207.980804 
	C201.981384,207.980804 202.005875,207.994476 201.917252,207.686157 
	C200.895676,206.906952 199.962723,206.436050 199.013260,205.978485 
	C198.996750,205.991806 199.034500,205.978516 199.039429,205.684036 
	C198.703949,205.248703 198.363571,205.107864 198.014374,204.984634 
	C198.005585,205.002258 198.033432,204.970779 198.054291,204.645355 
	C197.399170,203.863403 196.723221,203.406906 196.047256,202.950394 
	C196.047256,202.950394 196.007126,202.960480 195.974854,202.701111 
	C195.636749,202.277496 195.330902,202.113281 195.025070,201.949051 
	C195.025070,201.949051 195.018539,202.005539 194.956528,201.740692 
	C194.647736,201.249054 194.400955,201.022247 194.154160,200.795441 
	C193.074280,199.907776 191.994400,199.020111 191.313583,198.460464 
	C194.047424,197.259262 196.244217,196.294052 198.727325,195.151337 
z"/>
<path fill="#030303" opacity="1.000000" stroke="none" 
	d="
M225.134186,186.290268 
	C225.691788,186.755188 225.950974,187.262787 226.543121,188.180557 
	C226.876053,188.590729 227.332977,188.756149 227.332977,188.756149 
	C227.925476,188.828232 228.517960,188.900314 229.412231,188.910721 
	C232.538010,190.540787 235.362000,192.232544 238.660278,194.214417 
	C239.400253,194.761505 239.665955,195.018448 239.931656,195.275391 
	C240.603500,195.860565 241.275345,196.445724 242.340546,197.393250 
	C243.463242,198.666779 244.192566,199.577927 244.921890,200.489090 
	C244.966309,200.698532 245.077789,200.862320 245.564789,201.345978 
	C247.291733,203.457489 248.710236,205.203445 249.835541,207.252716 
	C247.759201,207.699310 245.944519,207.681351 244.200211,208.022812 
	C241.428314,208.565414 238.703369,209.347946 235.958572,210.028992 
	C234.186203,209.097656 232.413834,208.166321 230.152237,206.854385 
	C228.472229,205.614838 227.281464,204.755875 226.090683,203.896927 
	C222.608246,199.811508 219.125809,195.726089 215.246735,191.175369 
	C219.358185,190.839066 224.058380,191.999100 225.134186,186.290268 
z"/>
<path fill="#030303" opacity="1.000000" stroke="none" 
	d="
M253.725769,202.171356 
	C254.039536,202.186890 254.356140,202.170807 254.570404,202.444412 
	C255.176819,203.182693 255.568985,203.647385 255.961151,204.112061 
	C257.237701,205.861404 258.514282,207.610764 259.492096,209.709290 
	C257.804230,210.022079 256.415100,209.985672 255.025955,209.949280 
	C255.025955,209.949265 254.992249,209.985657 254.924622,209.699066 
	C254.496216,209.250992 254.135452,209.089508 253.774673,208.928009 
	C253.774673,208.928009 253.602951,208.897141 253.485992,208.564743 
	C251.338867,205.735046 249.308670,203.237747 247.278473,200.740479 
	C247.977905,200.482025 248.677338,200.223572 249.857788,200.221222 
	C250.885757,200.679871 251.432709,200.882416 251.979675,201.084946 
	C252.457123,201.441910 252.934555,201.798859 253.725769,202.171356 
z"/>
<path fill="#515151" opacity="1.000000" stroke="none" 
	d="
M217.863922,219.058823 
	C221.533188,216.223648 225.593018,213.455917 229.577972,210.344986 
	C233.423859,210.851532 233.076416,212.292221 229.982422,213.930527 
	C229.004166,214.448532 227.831757,214.599884 226.508926,214.989502 
	C227.327637,216.249344 227.993195,217.273499 229.048294,218.897079 
	C226.618210,218.758377 223.874390,223.718201 223.208740,217.337479 
	C221.547653,217.937225 219.901077,218.531738 217.863922,219.058823 
z"/>
<path fill="#242424" opacity="1.000000" stroke="none" 
	d="
M236.368713,210.018692 
	C238.703369,209.347946 241.428314,208.565414 244.200211,208.022812 
	C245.944519,207.681351 247.759201,207.699310 250.063141,207.441345 
	C250.720581,207.896500 250.857162,208.466339 250.993744,209.036163 
	C251.518036,210.152603 252.042328,211.269043 253.024521,213.360580 
	C251.274307,212.558411 250.032074,212.385178 249.528717,211.682587 
	C248.130081,209.730331 247.174561,206.238663 245.355804,211.452087 
	C245.217773,211.847763 243.429276,211.934189 242.501862,211.732529 
	C240.560974,211.310516 238.682785,210.600266 236.368713,210.018692 
z"/>
<path fill="#2F2F2F" opacity="1.000000" stroke="none" 
	d="
M208.977234,217.805237 
	C206.640091,216.265701 204.315796,214.476990 202.351440,212.342285 
	C203.259995,211.973984 203.808578,211.951706 204.639435,211.939056 
	C205.297318,211.952667 205.672974,211.956635 206.048615,211.960587 
	C206.048615,211.960587 206.027588,212.004303 206.109146,212.223709 
	C206.474487,212.621231 206.758286,212.799347 207.042068,212.977448 
	C207.042068,212.977448 206.995041,212.971680 207.011581,213.296570 
	C207.686096,214.766708 208.344070,215.911942 209.002045,217.057175 
	C209.002045,217.057175 208.990051,217.556046 208.977234,217.805237 
z"/>
<path fill="#404040" opacity="1.000000" stroke="none" 
	d="
M251.401321,209.027039 
	C250.857162,208.466339 250.720581,207.896500 250.356369,207.138046 
	C248.710236,205.203445 247.291733,203.457489 245.704666,201.404449 
	C245.827744,201.047119 246.119370,200.996857 246.844742,200.843536 
	C249.308670,203.237747 251.338867,205.735046 253.408600,208.604980 
	C252.901718,208.991043 252.355316,209.004486 251.401321,209.027039 
z"/>
<path fill="#515151" opacity="1.000000" stroke="none" 
	d="
M209.351105,217.062378 
	C208.344070,215.911942 207.686096,214.766708 207.032974,213.285629 
	C209.357208,214.725235 211.676590,216.500671 214.012085,218.620895 
	C212.585526,218.332977 211.142838,217.700272 209.351105,217.062378 
z"/>
<path fill="#515151" opacity="1.000000" stroke="none" 
	d="
M225.790039,204.038757 
	C227.281464,204.755875 228.472229,205.614838 229.845673,206.730789 
	C229.474167,207.613403 228.919983,208.238998 228.167709,209.112305 
	C226.682358,208.105774 225.395096,206.851517 223.902283,205.328766 
	C224.294296,204.767059 224.891846,204.473831 225.790039,204.038757 
z"/>
<path fill="#242424" opacity="1.000000" stroke="none" 
	d="
M240.047821,215.473495 
	C239.090195,214.511887 238.095551,213.520279 237.100891,212.528687 
	C237.800735,212.096741 238.500565,211.664810 239.200409,211.232864 
	C239.537262,212.411972 239.874115,213.591080 240.141006,215.138275 
	C240.071045,215.506363 240.010803,215.443512 240.047821,215.473495 
z"/>
<path fill="#2F2F2F" opacity="1.000000" stroke="none" 
	d="
M201.085785,231.970215 
	C201.891251,230.961182 203.063492,229.978485 204.540131,228.878082 
	C205.520416,229.520416 206.196304,230.280457 207.226837,231.439285 
	C204.867691,231.666962 203.160110,231.831757 201.085785,231.970215 
z"/>
<path fill="#333333" opacity="1.000000" stroke="none" 
	d="
M255.061310,210.293030 
	C256.415100,209.985672 257.804230,210.022079 259.611481,210.053665 
	C260.029602,210.048843 260.020111,210.032028 260.001038,210.272949 
	C259.981934,210.513885 260.011993,210.983017 260.007690,210.989197 
	C260.003387,210.995392 259.994354,211.007996 259.994354,211.007996 
	C259.487610,211.610229 258.980896,212.212448 258.218933,212.981415 
	C257.008057,212.311005 256.052368,211.473892 255.061310,210.293030 
z"/>
<path fill="#515151" opacity="1.000000" stroke="none" 
	d="
M214.067474,219.302612 
	C214.793900,218.977966 215.557236,218.990097 216.706528,218.973282 
	C216.651703,221.563156 215.573807,221.442825 214.067474,219.302612 
z"/>
<path fill="#515151" opacity="1.000000" stroke="none" 
	d="
M220.297867,221.625488 
	C220.454758,221.826996 220.438095,222.156326 220.421448,222.485641 
	C220.322403,222.241516 220.223373,221.997406 220.297867,221.625488 
z"/>
<path fill="#333333" opacity="1.000000" stroke="none" 
	d="
M253.947296,209.151703 
	C254.135452,209.089508 254.496216,209.250992 254.949371,209.700623 
	C254.734451,209.784317 254.427170,209.579865 253.947296,209.151703 
z"/>
<path fill="#2F2F2F" opacity="1.000000" stroke="none" 
	d="
M211.895004,220.965347 
	C211.700104,220.998367 211.425674,220.761673 211.055084,220.270386 
	C211.244431,220.242416 211.529938,220.469025 211.895004,220.965347 
z"/>
<path fill="#2F2F2F" opacity="1.000000" stroke="none" 
	d="
M210.881165,219.810181 
	C210.699524,219.862152 210.416504,219.682281 210.046021,219.260223 
	C210.232300,219.204819 210.506042,219.391586 210.881165,219.810181 
z"/>
<path fill="#2F2F2F" opacity="1.000000" stroke="none" 
	d="
M209.880035,218.809967 
	C209.698700,218.861572 209.415436,218.681564 209.044632,218.258759 
	C209.230759,218.203400 209.504440,218.390869 209.880035,218.809967 
z"/>
<path fill="#030303" opacity="1.000000" stroke="none" 
	d="
M287.132507,221.663269 
	C289.931061,220.752502 292.728638,220.169525 295.788605,219.321594 
	C296.455505,219.049881 296.860077,219.043121 297.755096,219.308411 
	C301.783600,222.788452 305.321655,225.996429 308.859680,229.204407 
	C308.859680,229.204407 308.815765,229.487320 308.491272,229.711166 
	C307.090210,230.594696 306.013611,231.254364 304.937012,231.914047 
	C301.346344,232.634995 297.755646,233.355942 293.681091,233.658508 
	C292.106415,231.510406 291.015594,229.780701 289.924744,228.050995 
	C288.993683,226.031006 288.062622,224.011032 287.132507,221.663269 
z"/>
<path fill="#030303" opacity="1.000000" stroke="none" 
	d="
M274.923218,219.269257 
	C275.791046,219.780334 276.658905,220.291397 278.221375,220.715302 
	C279.729858,220.447784 280.543732,220.267426 281.357574,220.087067 
	C281.515564,220.215256 281.651031,220.363953 281.883362,220.955811 
	C282.322357,221.575974 282.642029,221.773529 282.961670,221.971085 
	C283.233612,222.162308 283.505524,222.353546 283.889618,223.025604 
	C284.003235,223.675980 284.004669,223.845535 284.006073,224.015076 
	C285.269379,225.164841 286.532684,226.314606 287.918091,228.111176 
	C288.994141,230.528214 289.948090,232.298462 290.902039,234.068695 
	C290.772980,234.598831 290.643860,235.128967 289.938110,235.792725 
	C288.911743,235.893509 288.462067,235.860703 288.012360,235.827896 
	C284.913147,233.654205 281.813934,231.480515 278.421387,229.151382 
	C277.004272,227.694885 275.880524,226.393845 274.399078,224.812332 
	C274.041382,224.531845 273.886444,224.110718 273.886444,224.110718 
	C273.284424,222.912003 272.682373,221.713272 272.125397,219.983444 
	C272.793854,219.273209 273.417297,219.094101 274.262451,219.000717 
	C274.484222,219.086456 274.923218,219.269257 274.923218,219.269257 
z"/>
<path fill="#333333" opacity="1.000000" stroke="none" 
	d="
M291.328735,234.050247 
	C289.948090,232.298462 288.994141,230.528214 288.062988,228.406998 
	C288.494751,228.049393 288.903717,228.042740 289.618713,228.043549 
	C291.015594,229.780701 292.106415,231.510406 293.332855,233.579971 
	C292.897461,233.957153 292.326477,233.994476 291.328735,234.050247 
z"/>
<path fill="#333333" opacity="1.000000" stroke="none" 
	d="
M304.988403,232.242523 
	C306.013611,231.254364 307.090210,230.594696 308.486267,229.854218 
	C309.037872,230.158218 309.270081,230.542999 309.696716,231.205322 
	C308.274017,231.845581 306.656921,232.208282 304.988403,232.242523 
z"/>
<path fill="#333333" opacity="1.000000" stroke="none" 
	d="
M288.131348,236.087357 
	C288.462067,235.860703 288.911743,235.893509 289.700317,235.943817 
	C289.442902,236.089813 288.846649,236.218307 288.131348,236.087357 
z"/>
<path fill="#242424" opacity="1.000000" stroke="none" 
	d="
M178.075531,205.067947 
	C177.093475,204.959579 176.099548,204.838837 175.105652,204.718109 
	C175.195358,204.098892 175.285065,203.479706 175.374786,202.860504 
	C176.064484,203.166946 176.754211,203.473373 177.721954,203.889877 
	C177.999969,203.999954 177.995972,203.995956 178.004684,204.260605 
	C178.023590,204.701477 178.033783,204.877716 178.043976,205.053940 
	C178.043976,205.053940 178.063675,205.055573 178.075531,205.067947 
z"/>
<path fill="#1E1E1E" opacity="1.000000" stroke="none" 
	d="
M198.892593,207.057892 
	C198.043304,207.221191 197.194000,207.384491 196.178070,207.333893 
	C196.012466,206.551147 196.013519,205.982269 196.364746,205.138214 
	C197.154404,204.898941 197.593918,204.934860 198.033432,204.970795 
	C198.033432,204.970779 198.005585,205.002258 198.067139,205.247742 
	C198.430634,205.654984 198.732559,205.816742 199.034500,205.978516 
	C199.034500,205.978516 198.996750,205.991806 198.967651,206.250244 
	C198.923218,206.691757 198.907898,206.874832 198.892593,207.057892 
z"/>
<path fill="#242424" opacity="1.000000" stroke="none" 
	d="
M179.946014,203.750793 
	C179.929077,204.105209 179.599518,204.111099 179.115753,204.065277 
	C178.419998,204.011642 178.207993,204.003799 177.995972,203.995956 
	C177.995972,203.995956 177.999969,203.999954 178.001953,204.002014 
	C178.316040,203.169769 178.628113,202.335495 178.940186,201.501205 
	C179.281113,202.132919 179.622025,202.764648 179.946014,203.750793 
z"/>
<path fill="#515151" opacity="1.000000" stroke="none" 
	d="
M198.054291,204.645355 
	C197.593918,204.934860 197.154404,204.898941 196.412842,204.715164 
	C196.065811,204.209259 196.020828,203.851227 196.011566,203.221786 
	C196.723221,203.406906 197.399170,203.863403 198.054291,204.645355 
z"/>
<path fill="#515151" opacity="1.000000" stroke="none" 
	d="
M193.939636,200.946136 
	C194.400955,201.022247 194.647736,201.249054 194.972168,201.716614 
	C194.608246,201.670547 194.166672,201.383698 193.939636,200.946136 
z"/>
<path fill="#515151" opacity="1.000000" stroke="none" 
	d="
M195.085236,202.208160 
	C195.330902,202.113281 195.636749,202.277496 195.992767,202.706528 
	C195.743759,202.803314 195.444595,202.635284 195.085236,202.208160 
z"/>
<path fill="#010101" opacity="1.000000" stroke="none" 
	d="
M320.961548,217.006592 
	C317.204468,220.323929 313.470306,223.629593 309.348785,226.603134 
	C306.349304,223.454605 303.737152,220.638199 301.125031,217.821808 
	C301.610809,216.514709 302.096588,215.207626 303.057800,213.460144 
	C303.806488,212.691681 304.079773,212.363647 304.353027,212.035599 
	C305.539734,210.927139 306.726471,209.818680 308.573212,208.093704 
	C311.954590,210.535431 315.479645,213.080902 319.483521,216.037781 
	C320.308594,216.647064 320.654846,216.844986 321.001099,217.042892 
	C321.001099,217.042892 320.984467,216.994904 320.961548,217.006592 
z"/>
<path fill="#333333" opacity="1.000000" stroke="none" 
	d="
M300.809204,217.979340 
	C303.737152,220.638199 306.349304,223.454605 308.982971,226.623718 
	C308.990356,227.471848 308.976257,227.967239 308.910889,228.833527 
	C305.321655,225.996429 301.783600,222.788452 298.058746,219.297745 
	C298.745758,218.722305 299.619568,218.429581 300.809204,217.979340 
z"/>
<path fill="#333333" opacity="1.000000" stroke="none" 
	d="
M304.016479,212.135132 
	C304.079773,212.363647 303.806488,212.691681 303.286011,213.230637 
	C303.252502,213.039246 303.466217,212.636948 304.016479,212.135132 
z"/>
<path fill="#404040" opacity="1.000000" stroke="none" 
	d="
M320.861511,216.752884 
	C320.654846,216.844986 320.308594,216.647064 319.746887,216.229309 
	C319.928284,216.160599 320.325134,216.311737 320.861511,216.752884 
z"/>
<path fill="#FBF9FE" opacity="1.000000" stroke="none" 
	d="
M204.758606,189.166962 
	C205.753616,188.892090 206.535248,188.925110 207.544113,189.020340 
	C207.315048,189.613281 206.858765,190.144043 206.199921,190.849792 
	C205.513306,190.508133 205.029266,189.991501 204.758606,189.166962 
z"/>
<path fill="#515151" opacity="1.000000" stroke="none" 
	d="
M206.118805,192.796890 
	C205.929459,193.118637 205.742569,193.114700 205.277161,193.077728 
	C205.167282,192.732666 205.335892,192.420624 205.747681,191.970795 
	C206.034332,192.045731 206.077789,192.258469 206.118805,192.796890 
z"/>
<path fill="#2F2F2F" opacity="1.000000" stroke="none" 
	d="
M185.157425,221.251312 
	C186.677734,222.047241 188.326004,223.153946 190.017410,224.608597 
	C188.468811,223.825073 186.877106,222.693588 185.157425,221.251312 
z"/>
<path fill="#333333" opacity="1.000000" stroke="none" 
	d="
M172.711929,209.047638 
	C173.675720,210.103851 174.317230,211.198578 175.003479,212.620667 
	C172.917343,212.517609 170.705063,212.143188 172.711929,209.047638 
z"/>
<path fill="#2F2F2F" opacity="1.000000" stroke="none" 
	d="
M183.063599,219.150787 
	C183.689285,219.308670 184.330414,219.813202 185.015167,220.636017 
	C184.398895,220.468658 183.738968,219.983032 183.063599,219.150787 
z"/>
<path fill="#2F2F2F" opacity="1.000000" stroke="none" 
	d="
M177.939346,215.044647 
	C178.393829,215.090836 178.662933,215.303650 179.090363,215.723480 
	C178.750458,215.690750 178.252213,215.451004 177.939346,215.044647 
z"/>
<path fill="#333333" opacity="1.000000" stroke="none" 
	d="
M175.107697,213.130936 
	C175.038589,212.946136 175.527710,212.914993 175.770493,212.949142 
	C175.734451,213.094101 175.455627,213.204910 175.107697,213.130936 
z"/>
<path fill="#404040" opacity="1.000000" stroke="none" 
	d="
M244.927979,200.091949 
	C244.192566,199.577927 243.463242,198.666779 242.614410,197.406097 
	C243.307953,197.935989 244.121002,198.815384 244.927979,200.091949 
z"/>
<path fill="#2F2F2F" opacity="1.000000" stroke="none" 
	d="
M251.831299,200.817780 
	C251.432709,200.882416 250.885757,200.679871 250.162872,200.241318 
	C250.552277,200.187088 251.117615,200.368851 251.831299,200.817780 
z"/>
<path fill="#404040" opacity="1.000000" stroke="none" 
	d="
M239.953552,194.966187 
	C239.665955,195.018448 239.400253,194.761505 239.013336,194.254791 
	C239.071976,194.009857 239.251846,194.014709 239.701157,194.028290 
	C239.972229,194.243698 239.973846,194.450348 239.953552,194.966187 
z"/>
<path fill="#FBF9FE" opacity="1.000000" stroke="none" 
	d="
M349.103516,306.850983 
	C347.304840,307.663544 345.618805,308.078796 343.932739,308.494019 
	C343.612030,307.134644 342.813171,305.649780 343.126221,304.456696 
	C343.364349,303.549164 345.678131,302.230804 345.926575,302.441528 
	C347.224060,303.541962 348.156616,305.072632 349.103516,306.850983 
z"/>
<path fill="#FBF9FE" opacity="1.000000" stroke="none" 
	d="
M233.697052,302.442261 
	C234.605362,304.257538 235.159653,305.925018 235.713943,307.592529 
	C234.275711,308.045715 232.785706,308.946075 231.418289,308.787750 
	C230.570801,308.689606 229.099930,306.361725 229.298691,306.103241 
	C230.412979,304.653900 231.950195,303.529724 233.697052,302.442261 
z"/>
<path fill="#333333" opacity="1.000000" stroke="none" 
	d="
M263.102325,212.901367 
	C261.945953,212.532562 261.103546,212.050613 260.127747,211.288330 
	C259.994354,211.007996 260.003387,210.995392 260.241821,210.893204 
	C260.654175,210.510071 260.828094,210.229111 261.002014,209.948151 
	C261.529480,209.914642 262.056915,209.881149 262.812012,209.920715 
	C263.785645,210.115234 264.531586,210.236694 266.002747,210.476242 
	C264.826233,211.527908 264.121277,212.158066 263.102325,212.901367 
z"/>
<path fill="#333333" opacity="1.000000" stroke="none" 
	d="
M255.949158,203.775787 
	C255.568985,203.647385 255.176819,203.182693 254.723663,202.403976 
	C255.087509,202.539795 255.512344,202.989655 255.949158,203.775787 
z"/>
<path fill="#242424" opacity="1.000000" stroke="none" 
	d="
M260.758728,209.965240 
	C260.828094,210.229111 260.654175,210.510071 260.246124,210.887024 
	C260.011993,210.983017 259.981934,210.513885 260.006958,210.280228 
	C260.031952,210.046570 260.515442,209.982330 260.758728,209.965240 
z"/>
<path fill="#030303" opacity="1.000000" stroke="none" 
	d="
M271.669373,214.922974 
	C272.010406,215.041992 272.021271,215.236511 271.974091,215.972198 
	C271.957214,216.677933 271.998383,216.842453 271.791290,217.221741 
	C271.450470,218.288010 271.357971,219.139511 271.265442,219.990997 
	C270.499359,219.993149 269.733246,219.995300 268.587646,219.971451 
	C268.208160,219.945465 268.081757,219.560928 268.052094,219.361389 
	C269.128052,217.774048 270.233643,216.386261 271.669373,214.922974 
z"/>
<path fill="#515151" opacity="1.000000" stroke="none" 
	d="
M281.158752,219.826202 
	C280.543732,220.267426 279.729858,220.447784 278.492065,220.601379 
	C278.403198,219.771133 278.738312,218.967651 279.415283,218.088196 
	C280.158112,218.529938 280.559021,219.047638 281.158752,219.826202 
z"/>
<path fill="#A171FF" opacity="1.000000" stroke="none" 
	d="
M286.657715,219.040009 
	C286.991730,219.387802 286.976105,219.818527 286.908844,220.570496 
	C286.226532,220.610748 285.595886,220.329773 284.965210,220.048798 
	C285.412842,219.740158 285.860474,219.431549 286.657715,219.040009 
z"/>
<path fill="#030303" opacity="1.000000" stroke="none" 
	d="
M284.175812,223.922729 
	C284.004669,223.845535 284.003235,223.675980 284.001465,223.252075 
	C284.115997,223.275253 284.230774,223.552811 284.175812,223.922729 
z"/>
<path fill="#404040" opacity="1.000000" stroke="none" 
	d="
M282.846375,221.731033 
	C282.642029,221.773529 282.322357,221.575974 281.959290,221.086761 
	C282.187592,221.027039 282.459320,221.259018 282.846375,221.731033 
z"/>
<path fill="#515151" opacity="1.000000" stroke="none" 
	d="
M273.580444,224.075989 
	C273.886444,224.110718 274.041382,224.531845 274.085205,224.751846 
	C273.092957,224.553146 272.056885,224.134445 271.036224,223.379700 
	C271.792572,223.376175 272.533478,223.708710 273.580444,224.075989 
z"/>
<path fill="#2F2F2F" opacity="1.000000" stroke="none" 
	d="
M271.373444,219.973663 
	C271.357971,219.139511 271.450470,218.288010 272.051636,217.333130 
	C273.053741,217.791489 273.547211,218.353241 274.040710,218.914978 
	C273.417297,219.094101 272.793854,219.273209 271.934418,219.690643 
	C271.698395,219.928955 271.481415,219.956314 271.373444,219.973663 
z"/>
<path fill="#FFFFFF" opacity="1.000000" stroke="none" 
	d="
M227.215302,188.730453 
	C227.332977,188.756149 226.876053,188.590729 226.859589,188.472641 
	C226.843140,188.354553 227.097626,188.704758 227.215302,188.730453 
z"/>
<path fill="#515151" opacity="1.000000" stroke="none" 
	d="
M274.262451,219.000717 
	C273.547211,218.353241 273.053741,217.791489 272.299927,217.118378 
	C271.998383,216.842453 271.957214,216.677933 271.967804,216.264343 
	C272.998260,216.450363 273.976990,216.885422 275.146790,217.606537 
	C275.261810,218.119736 275.185760,218.346878 275.016479,218.921631 
	C274.923218,219.269257 274.484222,219.086456 274.262451,219.000717 
z"/>
<path fill="#515151" opacity="1.000000" stroke="none" 
	d="
M206.059540,211.616211 
	C205.672974,211.956635 205.297318,211.952667 204.446136,211.695847 
	C203.338272,210.958191 202.705978,210.473389 202.073669,209.988586 
	C201.968460,209.538696 201.863251,209.088791 201.869720,208.309845 
	C203.344421,209.077820 204.707443,210.174820 206.059540,211.616211 
z"/>
<path fill="#515151" opacity="1.000000" stroke="none" 
	d="
M199.151459,207.293869 
	C198.907898,206.874832 198.923218,206.691757 198.984161,206.236923 
	C199.962723,206.436050 200.895676,206.906952 201.925873,207.697205 
	C201.152191,207.854324 200.281265,207.692093 199.151459,207.293869 
z"/>
<path fill="#1E1E1E" opacity="1.000000" stroke="none" 
	d="
M201.838776,210.118393 
	C202.705978,210.473389 203.338272,210.958191 204.163879,211.686203 
	C203.808578,211.951706 203.259995,211.973984 202.300323,211.995483 
	C201.794144,211.412521 201.699020,210.830353 201.838776,210.118393 
z"/>
<path fill="#333333" opacity="1.000000" stroke="none" 
	d="
M178.004684,204.260605 
	C178.207993,204.003799 178.419998,204.011642 178.952698,204.041443 
	C179.042221,204.347672 178.811035,204.631927 178.311920,204.985062 
	C178.033783,204.877716 178.023590,204.701477 178.004684,204.260605 
z"/>
<path fill="#515151" opacity="1.000000" stroke="none" 
	d="
M207.026978,212.687927 
	C206.758286,212.799347 206.474487,212.621231 206.106415,212.200027 
	C206.352051,212.104095 206.681976,212.251251 207.026978,212.687927 
z"/>
<path fill="#515151" opacity="1.000000" stroke="none" 
	d="
M199.039429,205.684036 
	C198.732559,205.816742 198.430634,205.654984 198.075928,205.230103 
	C198.363571,205.107864 198.703949,205.248703 199.039429,205.684036 
z"/>
</svg>